<svg id="svg" version="1.1" xmlns="http://www.w3.org/2000/svg" xmlns:xlink="http://www.w3.org/1999/xlink" width="400" height="400" viewBox="0, 0, 400,400"><g id="svgg"><path id="path0" d="M190.667 10.189 C 185.846 10.430,180.597 10.856,177.667 11.246 C 176.704 11.374,175.242 11.561,174.417 11.663 C 172.373 11.915,170.820 12.144,169.333 12.412 C 168.646 12.535,167.521 12.724,166.833 12.831 C 166.146 12.938,165.246 13.107,164.833 13.205 C 164.421 13.304,163.933 13.398,163.750 13.414 C 163.567 13.430,163.004 13.533,162.500 13.643 C 161.996 13.753,161.171 13.921,160.667 14.017 C 160.162 14.112,159.337 14.293,158.833 14.419 C 157.881 14.656,156.784 14.908,155.500 15.185 C 155.087 15.274,154.375 15.454,153.917 15.584 C 153.458 15.714,152.558 15.943,151.917 16.092 C 151.275 16.242,150.337 16.497,149.833 16.659 C 149.329 16.821,148.542 17.048,148.083 17.162 C 147.625 17.276,146.950 17.470,146.583 17.592 C 146.217 17.715,145.354 17.979,144.667 18.181 C 143.979 18.383,141.879 19.065,140.000 19.698 C 138.121 20.331,136.439 20.881,136.262 20.921 C 136.086 20.960,135.864 21.069,135.771 21.163 C 135.677 21.257,135.470 21.333,135.311 21.333 C 135.152 21.333,134.548 21.529,133.969 21.768 C 133.390 22.007,132.767 22.262,132.583 22.335 C 132.400 22.407,131.350 22.822,130.250 23.257 C 129.150 23.691,127.950 24.180,127.583 24.343 C 127.217 24.506,126.172 24.953,125.261 25.336 C 122.874 26.341,122.136 26.683,118.358 28.529 C 116.493 29.441,114.805 30.258,114.608 30.344 C 114.411 30.430,113.650 30.823,112.917 31.217 C 112.183 31.612,110.908 32.296,110.083 32.737 C 109.258 33.179,108.486 33.618,108.368 33.713 C 108.250 33.808,107.837 34.047,107.451 34.244 C 107.066 34.441,105.888 35.109,104.833 35.728 C 102.239 37.252,102.261 37.239,102.167 37.333 C 102.121 37.379,101.408 37.823,100.583 38.319 C 99.758 38.816,99.046 39.266,99.000 39.321 C 98.954 39.375,98.429 39.714,97.833 40.074 C 97.237 40.433,96.712 40.770,96.667 40.822 C 96.621 40.874,95.458 41.667,94.083 42.583 C 92.708 43.500,91.546 44.289,91.500 44.338 C 91.454 44.386,90.854 44.835,90.167 45.336 C 89.479 45.837,88.892 46.304,88.861 46.374 C 88.831 46.443,88.717 46.500,88.609 46.500 C 88.502 46.500,88.211 46.688,87.964 46.917 C 87.717 47.146,87.436 47.333,87.341 47.333 C 87.245 47.333,87.166 47.390,87.166 47.458 C 87.165 47.527,86.889 47.771,86.553 48.000 C 86.216 48.229,85.860 48.497,85.762 48.594 C 85.664 48.692,85.283 48.992,84.917 49.261 C 84.550 49.530,84.100 49.877,83.917 50.031 C 83.568 50.326,82.543 51.158,81.425 52.055 C 81.063 52.346,80.591 52.752,80.376 52.958 C 80.161 53.165,79.930 53.333,79.863 53.333 C 79.795 53.333,79.632 53.483,79.500 53.667 C 79.368 53.850,79.209 54.000,79.146 54.000 C 79.019 54.000,78.020 54.838,77.308 55.542 C 77.053 55.794,76.802 56.000,76.750 56.000 C 76.698 56.000,76.447 56.206,76.192 56.458 C 75.937 56.710,75.180 57.404,74.511 58.000 C 73.014 59.332,69.187 62.967,67.498 64.661 C 65.757 66.407,62.000 70.330,62.000 70.402 C 62.000 70.434,61.719 70.751,61.375 71.105 C 61.031 71.460,60.337 72.225,59.833 72.805 C 59.329 73.385,58.729 74.061,58.500 74.308 C 58.271 74.554,57.821 75.082,57.500 75.481 C 57.179 75.880,56.830 76.297,56.724 76.408 C 56.619 76.520,56.134 77.092,55.648 77.680 C 55.162 78.269,54.704 78.775,54.632 78.806 C 54.559 78.836,54.500 78.930,54.500 79.014 C 54.500 79.098,54.369 79.306,54.208 79.477 C 54.048 79.648,53.392 80.454,52.751 81.269 C 52.111 82.083,51.545 82.787,51.494 82.833 C 51.443 82.879,50.921 83.592,50.333 84.417 C 49.746 85.242,49.223 85.954,49.170 86.000 C 48.898 86.238,44.302 92.759,44.001 93.333 C 43.881 93.563,43.736 93.787,43.678 93.833 C 43.620 93.879,43.315 94.329,43.000 94.833 C 42.685 95.337,42.388 95.787,42.339 95.833 C 42.256 95.911,42.026 96.295,41.590 97.083 C 41.489 97.267,41.052 97.961,40.619 98.627 C 40.187 99.292,39.833 99.911,39.833 100.002 C 39.833 100.092,39.776 100.167,39.706 100.167 C 39.636 100.167,39.505 100.315,39.415 100.496 C 39.324 100.678,38.856 101.494,38.375 102.310 C 37.894 103.125,37.500 103.877,37.500 103.980 C 37.500 104.083,37.425 104.167,37.333 104.167 C 37.242 104.167,37.167 104.274,37.167 104.405 C 37.167 104.536,37.070 104.742,36.952 104.863 C 36.834 104.984,36.604 105.346,36.440 105.667 C 36.277 105.987,35.855 106.775,35.504 107.417 C 33.032 111.932,30.315 117.491,28.255 122.250 C 28.136 122.525,27.889 123.087,27.707 123.500 C 27.524 123.912,26.984 125.225,26.508 126.417 C 26.031 127.608,25.572 128.714,25.487 128.873 C 25.403 129.032,25.333 129.298,25.333 129.464 C 25.333 129.631,25.264 129.838,25.180 129.925 C 25.096 130.012,24.862 130.533,24.661 131.083 C 23.885 133.208,22.976 135.786,22.723 136.583 C 22.577 137.042,22.313 137.829,22.135 138.333 C 21.798 139.288,20.864 142.320,20.183 144.667 C 20.090 144.987,19.893 145.662,19.745 146.167 C 19.598 146.671,19.368 147.533,19.234 148.083 C 19.101 148.633,18.916 149.320,18.824 149.609 C 18.612 150.275,18.276 151.632,18.006 152.917 C 17.890 153.467,17.700 154.254,17.583 154.667 C 17.467 155.079,17.281 155.867,17.171 156.417 C 17.061 156.967,16.870 157.867,16.747 158.417 C 16.486 159.584,16.219 160.993,15.580 164.583 C 15.223 166.588,15.052 167.656,14.836 169.250 C 14.737 169.983,14.550 171.333,14.421 172.250 C 14.123 174.369,13.892 176.509,13.667 179.250 C 13.569 180.442,13.412 182.204,13.318 183.167 C 12.779 188.675,12.746 202.728,13.256 209.333 C 13.705 215.139,14.056 218.726,14.414 221.167 C 14.541 222.037,14.731 223.350,14.834 224.083 C 14.938 224.817,15.097 225.942,15.188 226.583 C 15.279 227.225,15.456 228.275,15.582 228.917 C 15.708 229.558,15.898 230.571,16.003 231.167 C 16.109 231.762,16.269 232.662,16.359 233.167 C 16.449 233.671,16.628 234.533,16.757 235.083 C 16.886 235.633,17.109 236.677,17.253 237.402 C 17.397 238.128,17.549 238.778,17.592 238.848 C 17.635 238.917,17.752 239.374,17.852 239.862 C 18.021 240.689,18.132 241.177,18.488 242.667 C 18.565 242.987,18.755 243.700,18.910 244.250 C 19.066 244.800,19.327 245.781,19.492 246.429 C 19.656 247.078,19.875 247.865,19.978 248.179 C 20.192 248.834,20.875 251.167,20.925 251.418 C 20.971 251.650,21.662 253.789,21.920 254.500 C 22.036 254.821,22.325 255.683,22.562 256.417 C 23.294 258.683,24.085 260.899,24.297 261.281 C 24.409 261.481,24.500 261.763,24.500 261.908 C 24.500 262.053,24.569 262.301,24.653 262.461 C 24.738 262.620,25.009 263.275,25.256 263.917 C 25.852 265.464,25.995 265.823,26.250 266.417 C 26.368 266.692,26.559 267.179,26.675 267.500 C 26.791 267.821,27.068 268.496,27.290 269.000 C 27.677 269.878,27.768 270.094,28.186 271.125 C 28.288 271.377,28.439 271.696,28.520 271.833 C 28.602 271.971,28.713 272.196,28.766 272.333 C 29.285 273.666,30.000 275.168,32.451 280.083 C 34.770 284.732,35.098 285.368,36.329 287.583 C 37.114 288.997,40.374 294.550,40.536 294.750 C 40.780 295.051,41.500 296.180,41.500 296.261 C 41.500 296.332,42.232 297.498,42.539 297.917 C 42.962 298.493,44.167 300.353,44.167 300.430 C 44.167 300.482,44.260 300.628,44.375 300.756 C 44.823 301.256,45.000 301.490,45.000 301.584 C 45.000 301.680,48.333 306.459,48.765 306.981 C 48.887 307.129,49.366 307.775,49.830 308.417 C 50.294 309.058,50.810 309.733,50.976 309.917 C 51.143 310.100,51.489 310.569,51.745 310.958 C 52.001 311.348,52.260 311.667,52.320 311.667 C 52.379 311.667,52.551 311.873,52.701 312.125 C 52.851 312.377,53.114 312.733,53.284 312.917 C 53.454 313.100,54.017 313.783,54.535 314.435 C 55.053 315.086,55.575 315.724,55.696 315.851 C 55.818 315.979,56.212 316.459,56.573 316.917 C 56.934 317.375,57.346 317.869,57.490 318.015 C 57.633 318.160,58.125 318.719,58.583 319.256 C 59.514 320.346,59.552 320.389,61.417 322.446 C 65.932 327.426,73.173 334.518,76.708 337.421 C 77.235 337.853,77.667 338.273,77.667 338.354 C 77.667 338.434,77.752 338.500,77.855 338.500 C 77.959 338.500,78.166 338.633,78.314 338.795 C 78.462 338.957,78.996 339.425,79.500 339.836 C 80.004 340.246,80.500 340.657,80.602 340.749 C 80.704 340.841,81.077 341.142,81.431 341.417 C 81.786 341.692,82.340 342.145,82.663 342.425 C 82.986 342.704,83.587 343.191,84.000 343.506 C 84.412 343.821,84.830 344.155,84.929 344.248 C 85.027 344.341,85.383 344.604,85.719 344.833 C 86.056 345.063,86.332 345.306,86.332 345.375 C 86.333 345.444,86.440 345.500,86.569 345.500 C 86.699 345.500,86.831 345.557,86.861 345.626 C 86.892 345.696,87.479 346.164,88.167 346.666 C 88.854 347.169,89.561 347.711,89.738 347.872 C 89.914 348.032,90.196 348.206,90.363 348.259 C 90.530 348.312,90.667 348.426,90.667 348.511 C 90.667 348.597,90.779 348.667,90.917 348.667 C 91.054 348.667,91.167 348.740,91.167 348.829 C 91.167 348.918,91.403 349.114,91.693 349.263 C 91.982 349.413,92.370 349.677,92.555 349.849 C 92.741 350.022,93.029 350.206,93.196 350.259 C 93.363 350.312,93.500 350.410,93.500 350.475 C 93.500 350.541,93.744 350.738,94.042 350.914 C 94.340 351.090,94.658 351.294,94.750 351.368 C 95.147 351.687,97.161 353.000,97.255 353.000 C 97.311 353.000,97.462 353.094,97.589 353.208 C 98.020 353.595,98.248 353.749,98.875 354.080 C 99.219 354.261,99.500 354.467,99.500 354.538 C 99.500 354.609,99.587 354.667,99.693 354.667 C 99.799 354.667,100.131 354.854,100.431 355.083 C 100.732 355.312,101.058 355.500,101.156 355.500 C 101.253 355.500,101.333 355.575,101.333 355.667 C 101.333 355.758,101.412 355.833,101.508 355.833 C 101.604 355.833,102.093 356.096,102.595 356.417 C 103.096 356.738,103.554 357.000,103.613 357.000 C 103.671 357.000,103.964 357.187,104.265 357.417 C 104.565 357.646,104.851 357.833,104.901 357.833 C 104.950 357.833,105.574 358.180,106.287 358.603 C 107.000 359.027,108.033 359.618,108.583 359.917 C 109.133 360.217,109.958 360.666,110.417 360.916 C 110.875 361.165,111.813 361.668,112.500 362.033 C 113.188 362.397,113.825 362.749,113.917 362.814 C 114.008 362.879,114.496 363.113,115.000 363.333 C 115.504 363.553,116.029 363.816,116.167 363.917 C 116.304 364.017,116.829 364.280,117.333 364.500 C 117.837 364.720,118.362 364.986,118.500 365.091 C 118.638 365.196,119.050 365.399,119.417 365.542 C 119.783 365.685,120.882 366.178,121.859 366.637 C 122.836 367.097,124.561 367.861,125.692 368.335 C 126.824 368.809,128.055 369.340,128.428 369.515 C 128.800 369.690,129.164 369.833,129.236 369.833 C 129.362 369.833,130.037 370.109,131.083 370.586 C 131.358 370.712,131.939 370.930,132.373 371.071 C 132.807 371.213,133.295 371.401,133.456 371.489 C 133.618 371.578,134.237 371.810,134.833 372.005 C 135.429 372.199,136.367 372.531,136.917 372.742 C 137.941 373.135,139.438 373.646,140.917 374.107 C 141.375 374.250,142.012 374.467,142.333 374.589 C 142.654 374.711,143.404 374.956,144.000 375.133 C 144.596 375.311,145.758 375.657,146.583 375.902 C 147.408 376.148,148.383 376.426,148.750 376.521 C 149.447 376.702,150.953 377.124,151.667 377.339 C 151.896 377.408,152.533 377.556,153.083 377.669 C 153.633 377.781,154.383 377.970,154.750 378.088 C 155.117 378.205,155.867 378.392,156.417 378.502 C 156.967 378.613,157.749 378.807,158.155 378.935 C 158.561 379.062,159.063 379.167,159.272 379.167 C 159.480 379.167,159.823 379.234,160.034 379.316 C 160.244 379.398,160.942 379.554,161.583 379.661 C 162.225 379.769,163.237 379.962,163.833 380.090 C 165.004 380.341,166.087 380.538,167.917 380.831 C 168.558 380.933,169.721 381.124,170.500 381.255 C 172.384 381.571,173.916 381.785,175.833 381.998 C 176.704 382.095,178.279 382.283,179.333 382.416 C 187.463 383.438,203.221 383.818,211.167 383.183 C 212.496 383.077,214.558 382.915,215.750 382.824 C 216.942 382.732,218.779 382.548,219.833 382.416 C 220.887 382.283,222.463 382.095,223.333 381.997 C 226.077 381.689,227.018 381.552,231.417 380.818 C 232.915 380.568,234.119 380.346,235.417 380.081 C 236.058 379.950,236.958 379.772,237.417 379.686 C 239.716 379.255,240.297 379.132,240.833 378.961 C 241.380 378.786,241.764 378.702,243.548 378.365 C 243.941 378.291,244.348 378.177,244.453 378.112 C 244.558 378.047,245.006 377.917,245.447 377.822 C 246.574 377.581,247.264 377.409,248.417 377.082 C 249.812 376.685,250.241 376.569,251.667 376.198 C 252.354 376.020,253.104 375.797,253.333 375.704 C 253.563 375.611,254.088 375.441,254.500 375.327 C 255.503 375.049,256.491 374.735,257.000 374.533 C 257.229 374.442,257.754 374.276,258.167 374.164 C 258.579 374.051,259.367 373.789,259.917 373.580 C 260.467 373.372,261.254 373.102,261.667 372.981 C 262.079 372.860,262.604 372.665,262.833 372.548 C 263.063 372.431,263.366 372.335,263.508 372.334 C 263.650 372.334,263.838 372.271,263.925 372.196 C 264.012 372.120,264.421 371.956,264.833 371.832 C 265.246 371.708,265.658 371.555,265.750 371.492 C 265.842 371.429,266.387 371.217,266.963 371.021 C 267.538 370.825,268.138 370.596,268.296 370.513 C 268.454 370.430,269.746 369.897,271.167 369.329 C 272.587 368.761,273.825 368.242,273.917 368.175 C 274.008 368.108,274.421 367.922,274.833 367.761 C 275.246 367.601,276.033 367.258,276.583 366.999 C 277.133 366.741,278.183 366.255,278.917 365.921 C 279.650 365.587,280.362 365.249,280.500 365.171 C 280.637 365.093,281.387 364.714,282.167 364.328 C 283.556 363.641,285.513 362.653,287.333 361.720 C 287.837 361.461,288.275 361.194,288.306 361.125 C 288.336 361.056,288.430 361.000,288.513 361.000 C 288.597 361.000,289.360 360.612,290.208 360.138 C 291.056 359.664,291.938 359.173,292.167 359.046 C 292.396 358.920,292.883 358.631,293.250 358.405 C 293.617 358.179,294.067 357.917,294.250 357.823 C 294.433 357.729,294.733 357.561,294.917 357.449 C 295.100 357.337,295.912 356.851,296.722 356.368 C 297.531 355.885,298.393 355.353,298.638 355.184 C 298.883 355.016,299.458 354.645,299.917 354.360 C 300.375 354.075,300.825 353.781,300.917 353.705 C 301.008 353.630,301.571 353.273,302.167 352.911 C 302.762 352.549,303.287 352.213,303.333 352.164 C 303.379 352.116,303.640 351.933,303.912 351.760 C 304.185 351.586,304.485 351.380,304.579 351.302 C 304.724 351.182,307.161 349.476,308.922 348.263 C 309.199 348.071,309.607 347.746,309.828 347.541 C 310.049 347.335,310.285 347.167,310.353 347.167 C 310.421 347.167,310.575 347.069,310.696 346.950 C 310.818 346.831,311.254 346.502,311.667 346.218 C 312.079 345.934,312.587 345.553,312.795 345.370 C 313.003 345.188,313.434 344.861,313.752 344.644 C 314.071 344.427,314.332 344.194,314.332 344.125 C 314.333 344.056,314.440 344.000,314.569 344.000 C 314.699 344.000,314.831 343.944,314.861 343.875 C 314.892 343.806,315.667 343.150,316.583 342.417 C 317.500 341.684,318.371 340.953,318.520 340.792 C 318.668 340.632,318.837 340.500,318.895 340.500 C 318.953 340.500,319.135 340.369,319.301 340.208 C 319.466 340.048,319.961 339.617,320.399 339.250 C 320.838 338.883,321.399 338.396,321.646 338.167 C 321.893 337.938,322.503 337.412,323.001 337.000 C 323.499 336.587,324.099 336.063,324.335 335.833 C 324.570 335.604,325.585 334.668,326.590 333.753 C 328.925 331.628,334.616 325.923,336.658 323.661 C 337.524 322.702,338.354 321.804,338.502 321.667 C 338.651 321.529,339.734 320.292,340.909 318.917 C 342.084 317.542,343.241 316.190,343.481 315.914 C 343.721 315.638,344.215 315.038,344.580 314.581 C 344.946 314.124,345.302 313.725,345.372 313.694 C 345.442 313.664,345.500 313.533,345.500 313.403 C 345.500 313.273,345.569 313.167,345.653 313.167 C 345.737 313.167,345.960 312.917,346.149 312.612 C 346.337 312.307,346.662 311.864,346.871 311.626 C 347.739 310.637,348.000 310.297,348.000 310.153 C 348.000 310.069,348.059 310.000,348.131 310.000 C 348.203 310.000,348.384 309.794,348.535 309.542 C 348.685 309.290,348.947 308.933,349.117 308.750 C 349.757 308.061,355.000 300.579,355.000 300.355 C 355.000 300.266,355.056 300.169,355.125 300.139 C 355.194 300.108,355.616 299.521,356.064 298.833 C 356.511 298.146,357.092 297.262,357.355 296.870 C 357.618 296.478,357.833 296.084,357.833 295.995 C 357.833 295.906,357.908 295.833,358.000 295.833 C 358.092 295.833,358.167 295.763,358.167 295.677 C 358.167 295.591,358.617 294.799,359.167 293.917 C 359.717 293.035,360.167 292.269,360.167 292.214 C 360.167 292.159,360.341 291.883,360.555 291.599 C 360.768 291.315,361.049 290.840,361.179 290.542 C 361.309 290.244,361.471 290.000,361.541 290.000 C 361.610 290.000,361.667 289.893,361.667 289.762 C 361.667 289.631,361.760 289.425,361.875 289.304 C 361.990 289.182,362.212 288.821,362.369 288.500 C 362.526 288.179,362.893 287.504,363.184 287.000 C 364.248 285.159,367.622 278.629,367.973 277.731 C 368.077 277.467,368.233 277.137,368.321 277.000 C 368.466 276.772,369.157 275.284,369.909 273.583 C 370.071 273.217,370.312 272.692,370.446 272.417 C 370.580 272.142,371.030 271.092,371.445 270.083 C 371.861 269.075,372.332 267.950,372.492 267.583 C 372.651 267.217,372.951 266.467,373.158 265.917 C 373.365 265.367,373.636 264.692,373.760 264.417 C 374.041 263.793,374.917 261.435,375.261 260.377 C 375.403 259.941,375.620 259.358,375.744 259.083 C 375.868 258.808,376.398 257.233,376.921 255.583 C 377.444 253.933,377.968 252.321,378.085 252.000 C 378.202 251.679,378.388 251.079,378.499 250.667 C 378.611 250.254,378.772 249.737,378.858 249.518 C 378.944 249.299,379.228 248.287,379.490 247.268 C 379.751 246.250,380.121 244.854,380.312 244.167 C 380.682 242.838,381.656 238.750,382.000 237.083 C 382.114 236.533,382.305 235.671,382.426 235.167 C 382.546 234.662,382.730 233.762,382.834 233.167 C 382.939 232.571,383.127 231.596,383.252 231.000 C 383.378 230.404,383.563 229.392,383.663 228.750 C 383.764 228.108,383.913 227.171,383.996 226.667 C 384.651 222.639,384.976 220.043,385.571 214.083 C 386.529 204.487,386.534 188.530,385.581 179.500 C 385.451 178.262,385.264 176.463,385.165 175.500 C 384.907 172.966,384.666 171.091,384.417 169.667 C 384.296 168.979,384.111 167.742,384.005 166.917 C 383.899 166.092,383.742 165.145,383.656 164.814 C 383.570 164.483,383.500 163.981,383.500 163.700 C 383.500 163.419,383.423 162.987,383.330 162.741 C 383.236 162.495,383.086 161.833,382.997 161.272 C 382.706 159.449,382.522 158.503,382.353 157.955 C 382.261 157.659,382.102 156.967,381.998 156.417 C 381.794 155.340,381.645 154.678,381.339 153.500 C 381.232 153.087,381.082 152.450,381.006 152.083 C 380.799 151.096,380.361 149.364,380.078 148.417 C 379.837 147.608,379.448 146.162,379.167 145.028 C 379.091 144.722,378.956 144.272,378.867 144.028 C 378.778 143.783,378.614 143.246,378.501 142.833 C 378.389 142.421,378.200 141.821,378.081 141.500 C 377.962 141.179,377.704 140.354,377.506 139.667 C 377.309 138.979,377.043 138.154,376.917 137.833 C 376.790 137.512,376.598 136.950,376.489 136.583 C 376.380 136.217,376.120 135.467,375.911 134.917 C 375.702 134.367,375.493 133.767,375.447 133.583 C 375.276 132.908,374.635 131.245,374.487 131.092 C 374.402 131.005,374.333 130.797,374.333 130.631 C 374.333 130.465,374.263 130.199,374.178 130.039 C 374.092 129.880,373.746 129.037,373.408 128.167 C 373.070 127.296,372.698 126.358,372.581 126.083 C 372.464 125.808,372.293 125.396,372.201 125.167 C 372.109 124.938,371.868 124.375,371.667 123.917 C 371.466 123.458,371.203 122.858,371.083 122.583 C 370.964 122.308,370.671 121.657,370.433 121.135 C 370.195 120.614,370.000 120.147,370.000 120.098 C 370.000 119.930,368.470 116.746,366.629 113.083 C 364.094 108.038,363.952 107.761,363.844 107.667 C 363.792 107.621,363.525 107.146,363.250 106.612 C 362.975 106.077,362.674 105.515,362.581 105.362 C 362.488 105.209,362.113 104.559,361.748 103.918 C 361.382 103.277,361.008 102.626,360.917 102.471 C 360.733 102.163,359.565 100.193,359.162 99.513 C 358.795 98.895,358.022 97.693,357.474 96.889 C 357.213 96.508,357.000 96.152,357.000 96.099 C 357.000 96.046,356.659 95.496,356.242 94.877 C 355.826 94.257,355.413 93.638,355.325 93.500 C 355.167 93.253,351.558 88.059,351.097 87.417 C 350.416 86.467,348.102 83.351,347.755 82.917 C 347.534 82.642,347.184 82.192,346.975 81.917 C 346.766 81.642,346.555 81.379,346.506 81.333 C 346.457 81.287,346.048 80.762,345.598 80.167 C 345.148 79.571,344.696 79.008,344.594 78.917 C 344.492 78.825,344.111 78.375,343.746 77.917 C 343.382 77.458,343.043 77.046,342.993 77.000 C 342.943 76.954,342.343 76.243,341.660 75.420 C 340.976 74.596,340.265 73.771,340.081 73.586 C 339.896 73.401,339.259 72.688,338.666 72.000 C 338.073 71.313,337.268 70.436,336.877 70.053 C 336.486 69.670,336.167 69.316,336.167 69.267 C 336.167 68.967,326.128 59.183,323.750 57.165 C 323.292 56.776,322.796 56.336,322.648 56.187 C 322.500 56.038,322.015 55.617,321.571 55.250 C 321.127 54.883,320.556 54.377,320.304 54.125 C 320.051 53.873,319.773 53.667,319.686 53.667 C 319.599 53.667,319.503 53.609,319.472 53.538 C 319.442 53.468,319.006 53.074,318.504 52.663 C 318.002 52.253,317.484 51.816,317.352 51.694 C 317.221 51.571,316.694 51.159,316.182 50.778 C 315.669 50.397,315.206 50.026,315.153 49.953 C 315.100 49.881,314.828 49.655,314.549 49.452 C 313.585 48.751,312.083 47.606,312.000 47.510 C 311.954 47.456,311.242 46.929,310.417 46.337 C 309.592 45.746,308.818 45.166,308.696 45.048 C 308.575 44.930,308.425 44.833,308.363 44.833 C 308.301 44.833,307.987 44.607,307.667 44.332 C 307.346 44.057,306.952 43.790,306.792 43.738 C 306.631 43.686,306.500 43.588,306.500 43.519 C 306.500 43.451,306.181 43.216,305.792 42.998 C 305.402 42.780,304.483 42.180,303.750 41.666 C 303.017 41.151,301.479 40.136,300.333 39.409 C 299.188 38.683,298.212 38.050,298.167 38.003 C 298.121 37.955,297.858 37.804,297.583 37.667 C 297.308 37.529,297.046 37.371,297.000 37.314 C 296.954 37.258,296.479 36.958,295.943 36.648 C 295.408 36.337,294.733 35.944,294.443 35.774 C 291.267 33.907,287.467 31.785,286.500 31.338 C 286.087 31.148,285.563 30.885,285.333 30.754 C 284.791 30.445,280.484 28.319,278.667 27.464 C 276.046 26.231,275.590 26.026,273.750 25.245 C 272.742 24.817,271.542 24.300,271.083 24.097 C 270.625 23.893,269.987 23.629,269.667 23.510 C 269.346 23.391,268.858 23.202,268.583 23.089 C 268.308 22.976,267.821 22.790,267.500 22.675 C 266.861 22.446,266.677 22.375,265.354 21.837 C 264.862 21.637,264.037 21.332,263.521 21.161 C 263.005 20.989,261.946 20.617,261.167 20.334 C 260.387 20.050,259.375 19.699,258.917 19.554 C 258.458 19.409,257.558 19.120,256.917 18.912 C 256.275 18.705,255.188 18.368,254.500 18.164 C 253.813 17.961,252.950 17.698,252.583 17.581 C 252.217 17.464,251.579 17.277,251.167 17.167 C 250.754 17.056,250.117 16.868,249.750 16.748 C 249.383 16.629,248.408 16.368,247.583 16.168 C 246.758 15.968,245.746 15.708,245.333 15.591 C 244.921 15.473,244.171 15.288,243.667 15.180 C 242.225 14.871,241.323 14.665,240.333 14.419 C 239.829 14.293,238.967 14.103,238.417 13.996 C 236.503 13.624,235.910 13.506,234.750 13.270 C 234.108 13.139,233.096 12.951,232.500 12.853 C 231.904 12.754,230.779 12.564,230.000 12.430 C 228.223 12.125,226.628 11.888,224.917 11.676 C 224.183 11.585,222.721 11.399,221.667 11.263 C 213.337 10.187,199.981 9.724,190.667 10.189 M207.167 21.501 C 212.550 21.769,220.925 22.547,224.167 23.082 C 224.946 23.210,226.183 23.399,226.917 23.501 C 229.051 23.800,230.340 24.014,231.500 24.261 C 232.096 24.389,233.221 24.616,234.000 24.767 C 234.779 24.917,235.717 25.099,236.083 25.170 C 236.450 25.242,237.275 25.422,237.917 25.570 C 238.558 25.719,239.383 25.905,239.750 25.984 C 240.117 26.063,241.017 26.282,241.750 26.471 C 242.483 26.661,243.533 26.930,244.083 27.070 C 244.633 27.211,245.496 27.445,246.000 27.592 C 246.504 27.739,247.442 27.994,248.083 28.159 C 248.725 28.325,249.438 28.536,249.667 28.629 C 249.896 28.722,250.421 28.893,250.833 29.008 C 251.514 29.197,252.232 29.420,254.750 30.222 C 255.208 30.368,256.408 30.781,257.417 31.139 C 261.592 32.622,260.812 32.331,263.750 33.500 C 264.942 33.974,266.104 34.441,266.333 34.538 C 267.310 34.950,267.775 35.141,268.167 35.293 C 268.396 35.383,268.771 35.534,269.000 35.629 C 269.229 35.725,269.529 35.847,269.667 35.900 C 269.804 35.954,270.029 36.067,270.167 36.152 C 270.304 36.236,270.717 36.432,271.083 36.586 C 273.808 37.732,283.436 42.551,284.833 43.469 C 285.063 43.619,285.550 43.898,285.917 44.089 C 286.804 44.551,290.817 46.904,291.241 47.211 C 291.706 47.547,292.690 48.167,292.761 48.167 C 292.840 48.167,294.101 48.965,294.417 49.215 C 294.508 49.288,294.996 49.604,295.500 49.917 C 296.004 50.230,296.492 50.549,296.583 50.626 C 296.675 50.703,296.994 50.910,297.292 51.086 C 297.590 51.262,297.833 51.452,297.833 51.509 C 297.833 51.566,298.010 51.694,298.226 51.792 C 298.611 51.967,303.004 55.033,303.500 55.472 C 303.637 55.594,304.131 55.969,304.597 56.305 C 305.064 56.641,305.701 57.117,306.014 57.362 C 306.327 57.607,307.333 58.392,308.250 59.106 C 309.167 59.820,309.954 60.445,310.000 60.496 C 310.071 60.574,310.938 61.292,312.219 62.333 C 312.388 62.471,312.695 62.733,312.901 62.917 C 313.107 63.100,313.635 63.550,314.075 63.917 C 314.515 64.283,315.073 64.771,315.316 65.000 C 315.559 65.229,316.393 65.977,317.170 66.662 C 319.764 68.947,327.207 76.353,329.292 78.722 C 329.709 79.196,330.554 80.146,331.169 80.833 C 331.784 81.521,332.727 82.608,333.263 83.250 C 333.800 83.892,334.279 84.454,334.328 84.500 C 334.377 84.546,334.714 84.958,335.078 85.417 C 335.441 85.875,335.783 86.287,335.836 86.333 C 335.890 86.379,336.151 86.717,336.416 87.083 C 336.681 87.450,336.977 87.825,337.074 87.917 C 337.171 88.008,337.471 88.383,337.741 88.750 C 338.011 89.117,338.276 89.454,338.330 89.500 C 338.384 89.546,338.723 89.996,339.083 90.500 C 339.444 91.004,339.782 91.454,339.834 91.500 C 339.983 91.630,341.384 93.528,341.738 94.079 C 341.913 94.352,342.193 94.721,342.360 94.900 C 342.526 95.079,342.706 95.362,342.759 95.529 C 342.812 95.697,342.926 95.833,343.011 95.833 C 343.097 95.833,343.167 95.911,343.167 96.007 C 343.167 96.103,343.243 96.271,343.337 96.382 C 344.115 97.304,344.348 97.622,344.429 97.875 C 344.480 98.035,344.592 98.167,344.678 98.167 C 344.763 98.167,344.833 98.245,344.833 98.341 C 344.833 98.483,345.963 100.272,346.460 100.917 C 346.531 101.008,346.847 101.496,347.164 102.000 C 347.480 102.504,347.782 102.954,347.834 103.000 C 347.911 103.068,348.748 104.439,350.221 106.913 C 350.328 107.094,350.660 107.639,350.958 108.124 C 351.256 108.609,351.500 109.050,351.500 109.103 C 351.500 109.155,351.640 109.398,351.811 109.641 C 351.983 109.884,352.443 110.683,352.834 111.417 C 353.226 112.150,353.756 113.125,354.011 113.583 C 354.267 114.042,354.743 114.942,355.069 115.583 C 355.396 116.225,355.884 117.162,356.154 117.667 C 356.890 119.040,358.944 123.368,359.398 124.500 C 359.453 124.638,359.565 124.862,359.646 125.000 C 359.728 125.138,359.871 125.438,359.963 125.667 C 360.056 125.896,360.327 126.517,360.566 127.046 C 360.805 127.576,361.000 128.044,361.000 128.087 C 361.000 128.130,361.262 128.734,361.583 129.428 C 361.904 130.123,362.167 130.762,362.167 130.848 C 362.167 130.934,362.231 131.135,362.309 131.294 C 362.838 132.371,363.234 133.408,364.363 136.667 C 364.633 137.446,364.954 138.308,365.076 138.583 C 365.198 138.858,365.460 139.608,365.657 140.250 C 365.854 140.892,366.117 141.679,366.240 142.000 C 366.523 142.734,367.571 146.091,367.932 147.417 C 368.081 147.967,368.315 148.792,368.451 149.250 C 368.587 149.708,368.759 150.346,368.833 150.667 C 368.907 150.987,369.094 151.700,369.249 152.250 C 369.404 152.800,369.639 153.700,369.771 154.250 C 369.904 154.800,370.118 155.662,370.246 156.167 C 370.579 157.472,370.794 158.436,371.008 159.583 C 371.110 160.133,371.292 160.958,371.411 161.417 C 371.531 161.875,371.718 162.775,371.826 163.417 C 371.935 164.058,372.091 164.958,372.172 165.417 C 372.825 169.085,373.027 170.373,373.326 172.750 C 373.419 173.483,373.604 174.908,373.739 175.917 C 373.873 176.925,374.059 178.612,374.152 179.667 C 374.245 180.721,374.401 182.446,374.500 183.500 C 375.055 189.406,375.098 202.952,374.580 208.833 C 374.447 210.346,374.259 212.521,374.163 213.667 C 374.067 214.813,373.883 216.537,373.753 217.500 C 373.624 218.463,373.434 219.925,373.331 220.750 C 373.031 223.157,372.883 224.087,372.165 228.083 C 372.083 228.542,371.933 229.404,371.832 230.000 C 371.731 230.596,371.581 231.346,371.499 231.667 C 371.416 231.987,371.232 232.850,371.088 233.583 C 370.801 235.050,370.600 235.947,370.246 237.333 C 370.118 237.838,369.893 238.737,369.748 239.333 C 369.145 241.802,368.359 244.777,368.206 245.167 C 368.049 245.566,367.969 245.833,367.501 247.500 C 367.386 247.912,367.141 248.700,366.958 249.250 C 366.775 249.800,366.566 250.475,366.495 250.750 C 366.423 251.025,366.054 252.112,365.675 253.167 C 365.295 254.221,364.767 255.734,364.501 256.530 C 364.235 257.326,363.941 258.113,363.847 258.280 C 363.754 258.447,363.569 258.921,363.438 259.333 C 363.201 260.074,360.778 265.977,359.914 267.917 C 359.669 268.467,359.320 269.254,359.138 269.667 C 358.582 270.926,354.268 279.578,354.152 279.667 C 354.092 279.712,353.882 280.087,353.685 280.500 C 353.488 280.912,353.256 281.362,353.168 281.500 C 352.835 282.021,351.500 284.364,351.500 284.427 C 351.500 284.464,351.238 284.904,350.917 285.405 C 350.596 285.907,350.333 286.371,350.333 286.437 C 350.333 286.503,350.228 286.675,350.100 286.820 C 349.972 286.965,349.660 287.458,349.408 287.917 C 349.156 288.375,348.901 288.787,348.842 288.833 C 348.782 288.879,348.520 289.292,348.257 289.750 C 347.995 290.208,347.551 290.921,347.270 291.333 C 346.990 291.746,346.783 292.112,346.811 292.148 C 346.839 292.184,346.799 292.259,346.723 292.315 C 346.646 292.371,346.133 293.091,345.583 293.914 C 345.033 294.738,344.488 295.514,344.371 295.638 C 344.254 295.763,344.040 296.095,343.895 296.375 C 343.750 296.656,343.490 297.037,343.318 297.222 C 343.145 297.407,342.960 297.696,342.907 297.863 C 342.854 298.030,342.748 298.167,342.671 298.167 C 342.594 298.167,342.324 298.523,342.070 298.958 C 341.816 299.394,341.520 299.825,341.413 299.917 C 341.306 300.008,341.040 300.346,340.822 300.667 C 340.604 300.987,340.363 301.325,340.287 301.417 C 340.210 301.508,339.752 302.116,339.268 302.766 C 338.329 304.029,336.498 306.362,336.338 306.500 C 336.285 306.546,335.981 306.920,335.662 307.330 C 335.344 307.741,334.918 308.266,334.717 308.497 C 334.515 308.728,333.918 309.442,333.389 310.083 C 332.860 310.725,332.388 311.287,332.339 311.333 C 332.290 311.379,331.762 311.977,331.166 312.661 C 327.946 316.362,322.988 321.452,319.417 324.725 C 318.408 325.648,317.396 326.595,317.167 326.828 C 316.938 327.061,316.262 327.658,315.667 328.155 C 315.071 328.652,314.386 329.252,314.145 329.488 C 313.904 329.724,313.380 330.179,312.979 330.500 C 312.578 330.821,312.095 331.233,311.904 331.417 C 311.713 331.600,311.076 332.125,310.487 332.582 C 309.898 333.040,309.267 333.538,309.083 333.689 C 307.966 334.608,305.951 336.180,305.167 336.745 C 304.662 337.108,304.212 337.450,304.167 337.503 C 304.077 337.609,301.265 339.612,298.132 341.802 C 297.059 342.553,296.103 343.167,296.007 343.167 C 295.912 343.167,295.832 343.223,295.831 343.292 C 295.829 343.360,295.381 343.679,294.833 344.000 C 294.286 344.321,293.837 344.640,293.836 344.708 C 293.834 344.777,293.757 344.833,293.663 344.833 C 293.512 344.833,292.215 345.612,292.000 345.832 C 291.954 345.879,291.692 346.028,291.417 346.164 C 291.142 346.299,290.685 346.580,290.401 346.788 C 290.117 346.996,289.824 347.167,289.750 347.167 C 289.676 347.167,289.383 347.337,289.099 347.545 C 288.815 347.753,288.358 348.034,288.083 348.168 C 287.808 348.303,287.208 348.646,286.750 348.931 C 286.292 349.216,285.354 349.742,284.667 350.099 C 283.979 350.457,283.379 350.792,283.333 350.842 C 283.287 350.893,282.762 351.186,282.167 351.493 C 279.496 352.870,277.230 354.041,277.000 354.162 C 276.348 354.506,273.385 355.878,271.250 356.826 C 270.792 357.029,270.079 357.346,269.667 357.529 C 269.254 357.713,268.767 357.926,268.583 358.002 C 268.400 358.078,267.823 358.333,267.302 358.570 C 266.781 358.806,266.273 359.000,266.175 359.000 C 266.076 359.000,265.865 359.072,265.706 359.161 C 265.239 359.420,263.987 359.929,263.000 360.261 C 262.496 360.430,262.008 360.622,261.917 360.687 C 261.760 360.798,260.128 361.398,257.667 362.250 C 257.071 362.457,256.396 362.702,256.167 362.795 C 255.938 362.888,255.188 363.130,254.500 363.333 C 253.813 363.537,253.063 363.777,252.833 363.867 C 252.341 364.062,251.374 364.370,250.333 364.664 C 249.921 364.781,249.283 364.972,248.917 365.088 C 248.272 365.292,247.616 365.470,246.125 365.845 C 245.735 365.943,245.079 366.125,244.667 366.249 C 244.254 366.373,243.504 366.564,243.000 366.673 C 242.496 366.782,241.900 366.942,241.676 367.030 C 241.452 367.117,240.965 367.251,240.593 367.327 C 237.425 367.974,236.517 368.171,236.083 368.306 C 235.808 368.391,235.058 368.550,234.417 368.658 C 233.267 368.852,232.981 368.906,230.500 369.391 C 229.813 369.526,228.688 369.720,228.000 369.823 C 227.313 369.926,226.075 370.119,225.250 370.252 C 222.995 370.615,220.621 370.894,215.417 371.408 C 206.342 372.304,192.703 372.302,183.750 371.404 C 177.908 370.818,176.224 370.619,174.000 370.252 C 173.221 370.123,171.983 369.933,171.250 369.829 C 170.517 369.725,169.354 369.529,168.667 369.393 C 166.868 369.039,166.058 368.886,164.833 368.669 C 164.237 368.563,163.375 368.378,162.917 368.256 C 162.458 368.135,161.296 367.875,160.333 367.680 C 159.371 367.485,158.208 367.216,157.750 367.082 C 157.292 366.949,156.429 366.719,155.833 366.571 C 155.237 366.423,154.375 366.201,153.917 366.078 C 153.458 365.955,152.521 365.703,151.833 365.518 C 150.194 365.078,146.989 364.106,145.833 363.698 C 145.329 363.521,144.542 363.256,144.083 363.111 C 142.345 362.561,141.073 362.122,140.780 361.972 C 140.613 361.886,139.812 361.599,139.000 361.333 C 138.188 361.068,137.387 360.778,137.220 360.689 C 137.053 360.600,136.467 360.363,135.917 360.163 C 135.367 359.963,134.692 359.702,134.417 359.584 C 133.870 359.348,133.149 359.049,132.500 358.788 C 132.271 358.695,131.858 358.526,131.583 358.411 C 131.308 358.296,130.896 358.125,130.667 358.032 C 130.438 357.939,129.762 357.640,129.167 357.369 C 128.571 357.097,127.708 356.709,127.250 356.507 C 126.792 356.305,126.128 355.996,125.776 355.820 C 125.424 355.644,125.054 355.500,124.956 355.500 C 124.857 355.500,124.658 355.400,124.513 355.277 C 124.368 355.155,123.987 354.955,123.667 354.833 C 123.346 354.711,122.952 354.500,122.792 354.363 C 122.631 354.227,122.500 354.153,122.500 354.200 C 122.500 354.247,122.031 354.037,121.458 353.733 C 120.885 353.429,120.079 353.025,119.667 352.836 C 119.254 352.647,118.729 352.387,118.500 352.258 C 118.271 352.130,117.633 351.791,117.083 351.505 C 116.533 351.219,115.821 350.829,115.500 350.638 C 115.179 350.446,114.467 350.050,113.917 349.757 C 113.367 349.464,112.617 349.036,112.250 348.805 C 111.883 348.574,111.508 348.355,111.417 348.318 C 111.262 348.255,109.286 347.079,107.865 346.205 C 107.527 345.996,107.081 345.740,106.875 345.636 C 106.669 345.532,106.500 345.384,106.500 345.307 C 106.500 345.230,106.413 345.167,106.307 345.167 C 106.201 345.167,105.869 344.979,105.569 344.750 C 105.268 344.521,104.974 344.333,104.915 344.333 C 104.831 344.333,103.192 343.248,102.088 342.461 C 101.994 342.394,101.279 341.912,100.500 341.390 C 98.418 339.996,95.592 337.956,95.528 337.801 C 95.497 337.727,95.372 337.667,95.250 337.667 C 95.128 337.667,95.003 337.607,94.972 337.535 C 94.942 337.462,94.618 337.181,94.253 336.910 C 93.508 336.356,93.497 336.347,92.000 335.177 C 90.279 333.832,88.091 332.094,88.000 332.000 C 87.954 331.953,87.429 331.503,86.833 331.000 C 86.237 330.497,85.712 330.045,85.667 329.996 C 85.621 329.946,85.058 329.468,84.417 328.932 C 81.706 326.670,73.802 318.997,70.826 315.739 C 68.534 313.230,68.061 312.702,67.417 311.926 C 67.050 311.484,66.558 310.927,66.322 310.687 C 66.087 310.446,65.602 309.875,65.245 309.417 C 64.887 308.958,64.549 308.546,64.494 308.500 C 64.439 308.454,64.098 308.042,63.737 307.583 C 63.375 307.125,62.953 306.600,62.800 306.417 C 62.499 306.058,61.438 304.744,61.115 304.330 C 59.223 301.908,53.939 294.507,53.501 293.667 C 53.381 293.438,53.238 293.212,53.183 293.167 C 52.996 293.011,51.151 290.162,50.322 288.750 C 50.107 288.383,49.871 288.058,49.799 288.028 C 49.726 287.997,49.667 287.917,49.667 287.849 C 49.667 287.781,49.131 286.831,48.476 285.738 C 47.821 284.644,47.182 283.525,47.055 283.250 C 46.928 282.975,46.637 282.450,46.409 282.083 C 46.181 281.717,45.916 281.231,45.820 281.003 C 45.724 280.776,45.594 280.551,45.531 280.503 C 45.428 280.426,44.808 279.241,42.823 275.333 C 42.191 274.088,39.936 269.384,39.668 268.750 C 39.590 268.567,39.345 268.004,39.123 267.500 C 38.901 266.996,38.620 266.321,38.498 266.000 C 38.377 265.679,38.223 265.342,38.157 265.250 C 38.091 265.158,37.721 264.296,37.335 263.333 C 36.949 262.371,36.557 261.396,36.465 261.167 C 36.373 260.938,36.199 260.525,36.079 260.250 C 35.862 259.757,35.595 259.030,34.305 255.417 C 33.451 253.026,33.333 252.680,33.166 252.083 C 33.090 251.808,32.881 251.171,32.702 250.667 C 32.523 250.162,32.284 249.412,32.171 249.000 C 32.058 248.588,31.888 248.063,31.794 247.833 C 31.700 247.604,31.563 247.192,31.490 246.917 C 31.279 246.129,30.713 244.034,30.341 242.667 C 29.118 238.176,28.093 233.834,27.660 231.315 C 27.587 230.893,27.452 230.255,27.360 229.899 C 27.268 229.542,27.116 228.762,27.021 228.167 C 26.572 225.329,26.490 224.817,26.260 223.417 C 26.125 222.592,25.937 221.317,25.843 220.583 C 25.749 219.850,25.562 218.425,25.427 217.417 C 23.874 205.847,23.868 188.237,25.411 176.250 C 25.541 175.242,25.731 173.742,25.833 172.917 C 25.999 171.581,26.191 170.356,26.667 167.583 C 26.746 167.125,26.895 166.225,26.998 165.583 C 27.101 164.942,27.296 163.892,27.430 163.250 C 27.677 162.068,27.813 161.387,28.161 159.583 C 28.267 159.033,28.437 158.321,28.539 158.000 C 28.642 157.679,28.783 157.117,28.854 156.750 C 29.057 155.693,29.755 152.829,30.154 151.417 C 30.232 151.142,30.574 149.904,30.915 148.667 C 31.256 147.429,31.633 146.154,31.752 145.833 C 31.871 145.512,32.132 144.688,32.332 144.000 C 32.930 141.945,34.668 136.918,34.964 136.386 C 35.076 136.186,35.167 135.903,35.167 135.759 C 35.167 135.614,35.234 135.365,35.317 135.206 C 35.399 135.047,35.669 134.392,35.916 133.750 C 36.163 133.108,36.428 132.433,36.505 132.250 C 36.582 132.067,36.740 131.617,36.857 131.250 C 36.974 130.883,37.166 130.465,37.284 130.320 C 37.403 130.175,37.500 129.965,37.500 129.852 C 37.500 129.739,37.694 129.219,37.930 128.698 C 38.167 128.177,38.429 127.581,38.513 127.375 C 38.759 126.774,38.962 126.269,39.067 126.000 C 39.121 125.862,39.231 125.638,39.313 125.500 C 39.395 125.362,39.539 125.063,39.635 124.833 C 40.185 123.509,44.152 115.348,44.333 115.167 C 44.379 115.121,44.610 114.708,44.846 114.250 C 45.418 113.142,46.471 111.225,46.907 110.500 C 47.100 110.179,47.365 109.692,47.497 109.417 C 47.628 109.142,47.827 108.804,47.939 108.667 C 48.051 108.529,48.355 108.032,48.613 107.562 C 49.388 106.154,50.568 104.254,50.705 104.194 C 50.776 104.164,50.833 104.065,50.833 103.975 C 50.833 103.885,51.021 103.565,51.250 103.265 C 51.479 102.964,51.667 102.670,51.667 102.611 C 51.667 102.552,52.454 101.338,53.417 99.913 C 54.379 98.488,55.167 97.283,55.167 97.237 C 55.167 97.190,55.354 96.950,55.583 96.703 C 55.813 96.456,56.000 96.159,56.000 96.043 C 56.000 95.928,56.059 95.833,56.131 95.833 C 56.203 95.833,56.403 95.590,56.577 95.292 C 56.750 94.994,56.938 94.712,56.995 94.667 C 57.052 94.621,57.581 93.908,58.170 93.083 C 58.759 92.258,59.380 91.433,59.550 91.250 C 59.720 91.067,59.982 90.710,60.132 90.458 C 60.282 90.206,60.464 90.000,60.536 90.000 C 60.608 90.000,60.667 89.925,60.667 89.833 C 60.667 89.742,60.798 89.527,60.958 89.357 C 61.257 89.039,61.610 88.599,62.850 87.000 C 63.241 86.496,63.603 86.046,63.655 86.000 C 63.707 85.954,64.087 85.504,64.500 85.000 C 65.695 83.538,65.733 83.492,66.083 83.099 C 66.267 82.893,66.717 82.365,67.083 81.926 C 67.450 81.486,67.975 80.885,68.250 80.590 C 68.525 80.295,69.237 79.499,69.833 78.822 C 70.871 77.643,79.720 68.730,81.091 67.484 C 81.717 66.915,82.146 66.538,84.658 64.352 C 85.248 63.837,85.908 63.248,86.124 63.042 C 86.339 62.835,86.559 62.667,86.613 62.667 C 86.667 62.667,86.832 62.533,86.980 62.370 C 87.129 62.207,87.587 61.816,88.000 61.500 C 88.412 61.184,88.862 60.811,89.000 60.670 C 89.138 60.528,89.550 60.190,89.917 59.918 C 90.283 59.645,90.696 59.330,90.833 59.217 C 90.971 59.104,91.721 58.519,92.500 57.917 C 93.279 57.315,94.046 56.715,94.205 56.583 C 94.363 56.451,94.794 56.143,95.163 55.899 C 95.532 55.655,95.833 55.391,95.833 55.311 C 95.833 55.232,95.913 55.167,96.011 55.167 C 96.187 55.167,97.125 54.512,97.726 53.971 C 97.896 53.818,98.252 53.603,98.518 53.493 C 98.783 53.383,99.000 53.226,99.000 53.144 C 99.000 53.062,99.263 52.869,99.583 52.716 C 99.904 52.563,100.167 52.376,100.167 52.300 C 100.167 52.224,100.429 52.036,100.750 51.883 C 101.071 51.730,101.333 51.544,101.333 51.469 C 101.333 51.394,101.405 51.333,101.494 51.333 C 101.582 51.333,102.200 50.957,102.869 50.498 C 104.930 49.079,105.821 48.500,105.939 48.500 C 106.001 48.500,106.284 48.327,106.568 48.116 C 106.851 47.904,107.458 47.517,107.917 47.255 C 108.375 46.993,108.787 46.735,108.833 46.681 C 108.879 46.627,109.142 46.471,109.417 46.333 C 109.692 46.196,109.954 46.046,110.000 46.000 C 110.143 45.856,110.726 45.510,111.333 45.207 C 111.654 45.047,112.016 44.823,112.137 44.708 C 112.258 44.594,112.458 44.500,112.581 44.500 C 112.705 44.500,112.831 44.444,112.861 44.375 C 112.892 44.306,113.179 44.117,113.500 43.954 C 113.821 43.791,114.458 43.448,114.917 43.192 C 115.375 42.936,116.200 42.475,116.750 42.168 C 118.052 41.442,122.846 39.008,123.917 38.531 C 124.375 38.327,124.862 38.093,125.000 38.012 C 125.374 37.790,127.799 36.667,127.903 36.667 C 127.952 36.667,128.553 36.404,129.239 36.083 C 129.924 35.763,130.530 35.500,130.586 35.500 C 130.642 35.500,131.114 35.306,131.635 35.070 C 132.726 34.575,132.728 34.574,134.833 33.750 C 135.704 33.409,136.567 33.064,136.750 32.982 C 137.173 32.794,139.494 31.951,141.333 31.316 C 142.112 31.048,142.975 30.749,143.250 30.652 C 143.525 30.556,144.350 30.290,145.083 30.062 C 145.817 29.834,146.679 29.549,147.000 29.429 C 147.321 29.309,147.846 29.134,148.167 29.041 C 148.487 28.947,149.425 28.671,150.250 28.428 C 151.075 28.184,152.050 27.904,152.417 27.806 C 152.783 27.708,153.421 27.525,153.833 27.400 C 154.937 27.066,161.796 25.429,163.833 25.013 C 164.246 24.929,165.071 24.774,165.667 24.668 C 166.262 24.562,167.237 24.373,167.833 24.247 C 168.915 24.019,169.974 23.842,172.333 23.495 C 173.021 23.394,174.221 23.209,175.000 23.084 C 178.280 22.558,186.825 21.745,191.417 21.523 C 195.631 21.319,203.291 21.309,207.167 21.501 M192.750 28.418 C 192.567 28.449,191.104 28.557,189.500 28.659 C 185.012 28.944,182.429 29.162,180.333 29.433 C 179.279 29.569,177.817 29.757,177.083 29.850 C 175.008 30.113,173.533 30.330,172.083 30.585 C 171.350 30.714,170.225 30.903,169.583 31.006 C 168.942 31.109,168.145 31.262,167.814 31.346 C 167.483 31.431,167.039 31.500,166.829 31.500 C 166.618 31.500,166.064 31.608,165.598 31.740 C 165.132 31.872,164.300 32.068,163.750 32.176 C 162.190 32.484,158.007 33.473,157.083 33.754 C 156.625 33.893,155.537 34.191,154.667 34.414 C 152.871 34.876,150.002 35.730,147.667 36.498 C 146.796 36.784,145.971 37.048,145.833 37.084 C 145.535 37.162,143.820 37.764,143.000 38.079 C 142.679 38.202,141.967 38.467,141.417 38.667 C 140.530 38.989,139.890 39.230,138.750 39.668 C 138.567 39.739,137.442 40.192,136.250 40.675 C 134.055 41.565,133.277 41.896,131.719 42.606 C 131.243 42.823,130.817 43.000,130.771 43.000 C 130.580 43.000,121.681 47.319,121.500 47.500 C 121.454 47.546,121.117 47.732,120.750 47.913 C 120.383 48.095,119.211 48.738,118.144 49.344 C 117.077 49.949,115.952 50.571,115.644 50.727 C 115.027 51.037,114.463 51.371,114.333 51.500 C 114.287 51.546,113.978 51.733,113.645 51.917 C 112.452 52.573,110.582 53.746,110.528 53.872 C 110.497 53.942,110.398 54.000,110.308 54.000 C 110.218 54.000,109.899 54.188,109.598 54.417 C 109.298 54.646,109.000 54.833,108.936 54.833 C 108.832 54.833,106.669 56.283,106.240 56.641 C 106.142 56.722,105.891 56.880,105.682 56.992 C 105.156 57.273,99.123 61.525,98.917 61.759 C 98.825 61.863,98.487 62.125,98.167 62.341 C 97.846 62.557,97.546 62.779,97.500 62.834 C 97.454 62.889,97.117 63.151,96.750 63.416 C 96.383 63.681,96.008 63.977,95.917 64.074 C 95.825 64.171,95.450 64.474,95.083 64.747 C 94.399 65.257,93.940 65.621,93.606 65.919 C 93.502 66.012,93.079 66.347,92.667 66.664 C 92.254 66.981,91.804 67.357,91.667 67.498 C 91.529 67.640,91.004 68.092,90.501 68.503 C 89.997 68.914,89.425 69.400,89.230 69.583 C 89.035 69.767,88.400 70.329,87.818 70.833 C 85.982 72.424,85.235 73.142,80.708 77.667 C 75.936 82.436,75.603 82.784,73.990 84.667 C 73.401 85.354,72.763 86.067,72.572 86.250 C 72.381 86.433,71.930 86.958,71.571 87.417 C 71.211 87.875,70.879 88.287,70.832 88.333 C 70.786 88.379,70.336 88.904,69.832 89.500 C 69.329 90.096,68.860 90.608,68.792 90.639 C 68.723 90.669,68.667 90.794,68.667 90.917 C 68.667 91.039,68.610 91.164,68.540 91.194 C 68.471 91.225,67.940 91.850,67.361 92.583 C 66.782 93.317,66.219 94.029,66.110 94.167 C 66.000 94.304,65.687 94.717,65.414 95.083 C 65.140 95.450,64.860 95.775,64.792 95.806 C 64.723 95.836,64.667 95.961,64.667 96.083 C 64.667 96.206,64.604 96.331,64.528 96.361 C 64.452 96.392,63.986 96.979,63.492 97.667 C 62.999 98.354,62.547 98.954,62.488 99.000 C 62.428 99.046,62.255 99.327,62.102 99.625 C 61.950 99.923,61.752 100.167,61.662 100.167 C 61.573 100.167,61.500 100.252,61.500 100.356 C 61.500 100.460,61.057 101.165,60.515 101.923 C 59.973 102.680,59.437 103.476,59.323 103.692 C 59.210 103.907,59.067 104.121,59.005 104.167 C 58.944 104.212,58.600 104.737,58.240 105.333 C 57.881 105.929,57.542 106.454,57.488 106.500 C 57.354 106.613,55.453 109.737,54.698 111.083 C 54.493 111.450,54.177 111.994,53.996 112.292 C 53.815 112.590,53.519 113.077,53.339 113.375 C 53.158 113.673,52.859 114.217,52.674 114.583 C 52.488 114.950,52.036 115.775,51.669 116.417 C 50.715 118.082,46.483 126.669,45.959 128.000 C 45.869 128.229,45.728 128.529,45.646 128.667 C 45.565 128.804,45.454 129.029,45.400 129.167 C 45.227 129.612,45.035 130.066,44.623 131.000 C 44.401 131.504,44.125 132.179,44.009 132.500 C 43.893 132.821,43.701 133.308,43.583 133.583 C 43.465 133.858,43.294 134.271,43.202 134.500 C 43.111 134.729,42.765 135.592,42.432 136.417 C 42.100 137.242,41.830 138.043,41.831 138.198 C 41.832 138.354,41.767 138.521,41.687 138.571 C 41.606 138.621,41.500 138.832,41.450 139.039 C 41.401 139.247,41.127 140.054,40.842 140.833 C 40.023 143.068,39.363 145.102,38.463 148.167 C 38.368 148.487,38.197 149.050,38.081 149.417 C 37.966 149.783,37.705 150.721,37.502 151.500 C 37.299 152.279,37.029 153.254,36.903 153.667 C 36.586 154.705,35.565 158.970,35.247 160.583 C 35.102 161.317,34.918 162.179,34.837 162.500 C 34.679 163.124,34.475 164.211,34.163 166.083 C 34.056 166.725,33.867 167.737,33.744 168.333 C 33.620 168.929,33.435 170.054,33.333 170.833 C 33.230 171.612,33.077 172.625,32.992 173.083 C 32.710 174.606,32.257 178.785,32.008 182.167 C 31.923 183.313,31.780 185.037,31.688 186.000 C 31.253 190.585,31.336 204.274,31.831 209.500 C 31.931 210.554,32.088 212.279,32.179 213.333 C 32.424 216.165,32.622 217.755,33.348 222.750 C 33.441 223.392,33.623 224.479,33.752 225.167 C 33.881 225.854,34.068 226.904,34.167 227.500 C 34.495 229.460,34.924 231.598,35.336 233.333 C 35.413 233.654,35.563 234.367,35.670 234.917 C 35.777 235.467,35.960 236.217,36.076 236.583 C 36.192 236.950,36.377 237.662,36.487 238.167 C 36.597 238.671,36.785 239.383,36.904 239.750 C 37.023 240.117,37.213 240.829,37.326 241.333 C 37.528 242.238,37.677 242.779,38.083 244.083 C 38.197 244.450,38.386 245.088,38.503 245.500 C 38.620 245.912,38.938 246.925,39.210 247.750 C 39.482 248.575,39.765 249.475,39.838 249.750 C 39.984 250.296,40.898 252.900,41.593 254.750 C 41.834 255.392,42.102 256.158,42.189 256.452 C 42.275 256.747,42.418 257.033,42.506 257.087 C 42.594 257.142,42.667 257.333,42.667 257.512 C 42.667 257.691,42.735 257.968,42.819 258.127 C 42.903 258.286,43.286 259.204,43.670 260.167 C 44.054 261.129,44.585 262.391,44.850 262.970 C 45.116 263.549,45.333 264.053,45.333 264.090 C 45.333 264.168,45.961 265.573,46.745 267.250 C 47.722 269.342,50.662 275.214,51.501 276.750 C 51.951 277.575,52.375 278.362,52.443 278.500 C 52.511 278.637,52.875 279.275,53.252 279.917 C 53.630 280.558,53.990 281.196,54.054 281.333 C 54.117 281.471,54.357 281.883,54.587 282.250 C 54.817 282.617,55.081 283.067,55.173 283.250 C 55.265 283.433,55.564 283.921,55.838 284.333 C 56.112 284.746,56.381 285.215,56.437 285.375 C 56.493 285.535,56.605 285.667,56.686 285.667 C 56.767 285.667,56.833 285.753,56.833 285.859 C 56.833 285.965,57.021 286.298,57.250 286.598 C 57.479 286.899,57.667 287.224,57.667 287.322 C 57.667 287.420,57.742 287.500,57.833 287.500 C 57.925 287.500,58.000 287.576,58.000 287.668 C 58.000 287.994,64.263 297.056,65.109 297.954 C 65.214 298.066,65.464 298.422,65.664 298.746 C 65.864 299.069,66.096 299.333,66.180 299.333 C 66.264 299.333,66.333 299.440,66.333 299.569 C 66.333 299.699,66.391 299.831,66.462 299.861 C 66.533 299.892,66.964 300.403,67.421 300.998 C 67.877 301.593,68.325 302.164,68.417 302.267 C 68.508 302.370,68.846 302.775,69.167 303.167 C 69.487 303.558,69.825 303.962,69.917 304.065 C 70.008 304.167,70.368 304.605,70.716 305.038 C 71.064 305.471,71.439 305.921,71.549 306.038 C 71.709 306.207,73.021 307.711,74.083 308.943 C 76.047 311.219,82.778 318.062,85.417 320.464 C 86.150 321.132,87.050 321.957,87.417 322.299 C 87.783 322.640,88.571 323.330,89.167 323.833 C 89.763 324.336,90.287 324.786,90.333 324.833 C 90.379 324.880,90.904 325.331,91.500 325.834 C 92.096 326.338,92.608 326.806,92.639 326.875 C 92.669 326.944,92.794 327.000,92.917 327.000 C 93.039 327.000,93.164 327.056,93.194 327.125 C 93.225 327.194,93.662 327.586,94.167 327.998 C 94.671 328.409,95.121 328.784,95.167 328.832 C 95.212 328.880,95.550 329.140,95.917 329.412 C 96.283 329.683,96.664 329.982,96.762 330.077 C 96.860 330.172,97.216 330.438,97.553 330.667 C 97.889 330.896,98.165 331.140,98.166 331.208 C 98.166 331.277,98.279 331.333,98.417 331.333 C 98.554 331.333,98.667 331.395,98.667 331.471 C 98.667 331.546,99.200 331.972,99.852 332.418 C 100.504 332.863,101.136 333.326,101.256 333.447 C 101.377 333.568,101.557 333.667,101.655 333.667 C 101.753 333.667,101.833 333.737,101.833 333.822 C 101.833 333.908,101.970 334.021,102.137 334.074 C 102.304 334.127,102.586 334.301,102.762 334.462 C 102.939 334.622,103.306 334.896,103.579 335.071 C 103.852 335.247,104.152 335.456,104.246 335.536 C 104.340 335.617,105.092 336.128,105.917 336.672 C 106.742 337.216,107.507 337.737,107.618 337.831 C 107.729 337.924,107.858 338.000,107.905 338.000 C 107.993 338.000,109.520 339.015,109.667 339.172 C 109.742 339.253,111.774 340.479,112.583 340.931 C 112.767 341.034,113.667 341.564,114.583 342.109 C 115.500 342.654,116.362 343.156,116.500 343.223 C 116.638 343.291,116.900 343.437,117.084 343.548 C 119.679 345.114,125.516 348.089,129.833 350.045 C 130.337 350.274,131.256 350.694,131.875 350.980 C 132.494 351.266,133.043 351.500,133.094 351.500 C 133.145 351.500,133.576 351.676,134.052 351.892 C 134.528 352.108,135.817 352.640,136.917 353.075 C 138.017 353.511,139.067 353.929,139.250 354.005 C 139.433 354.081,140.108 354.339,140.750 354.579 C 141.392 354.819,142.179 355.114,142.500 355.235 C 143.317 355.541,144.421 355.913,146.833 356.695 C 147.979 357.067,149.179 357.467,149.500 357.585 C 150.428 357.927,155.125 359.245,157.750 359.901 C 159.669 360.380,163.591 361.295,164.583 361.494 C 165.133 361.605,166.071 361.797,166.667 361.922 C 167.262 362.046,168.275 362.234,168.917 362.340 C 169.558 362.445,170.571 362.631,171.167 362.752 C 172.302 362.984,173.683 363.197,175.917 363.488 C 176.650 363.583,178.075 363.770,179.083 363.904 C 191.078 365.498,208.450 365.503,220.083 363.917 C 221.000 363.792,222.387 363.605,223.167 363.502 C 226.628 363.043,226.869 363.003,231.250 362.153 C 232.258 361.957,233.383 361.739,233.750 361.668 C 235.640 361.302,237.807 360.832,238.250 360.693 C 238.525 360.607,239.200 360.444,239.750 360.331 C 240.300 360.219,241.350 359.956,242.083 359.746 C 242.817 359.537,243.932 359.240,244.562 359.086 C 245.192 358.933,245.867 358.746,246.062 358.671 C 246.257 358.596,246.754 358.442,247.167 358.328 C 247.579 358.215,248.142 358.056,248.417 357.975 C 249.391 357.689,256.423 355.362,256.833 355.190 C 257.063 355.094,257.775 354.819,258.417 354.579 C 259.058 354.339,259.733 354.079,259.917 354.001 C 260.100 353.923,260.625 353.725,261.083 353.561 C 261.542 353.397,262.104 353.167,262.333 353.049 C 262.563 352.932,262.814 352.835,262.891 352.834 C 263.031 352.833,263.297 352.724,264.896 352.009 C 265.343 351.809,266.055 351.508,266.479 351.341 C 266.903 351.173,267.850 350.758,268.583 350.418 C 269.317 350.078,270.329 349.611,270.833 349.381 C 272.202 348.756,277.404 346.152,278.833 345.376 C 279.521 345.003,280.421 344.522,280.833 344.307 C 281.246 344.093,281.621 343.878,281.667 343.830 C 281.712 343.782,281.938 343.653,282.167 343.542 C 282.396 343.431,282.883 343.152,283.250 342.922 C 283.617 342.692,284.067 342.429,284.250 342.338 C 284.433 342.247,284.862 342.002,285.202 341.795 C 285.542 341.587,286.630 340.931,287.619 340.336 C 288.608 339.742,289.492 339.194,289.583 339.119 C 289.675 339.044,290.612 338.427,291.667 337.747 C 292.721 337.068,293.733 336.390,293.917 336.240 C 294.100 336.091,294.419 335.889,294.625 335.791 C 294.831 335.693,295.000 335.550,295.000 335.473 C 295.000 335.396,295.076 335.333,295.169 335.333 C 295.343 335.333,297.494 333.823,298.073 333.295 C 298.251 333.133,298.452 333.000,298.520 333.000 C 298.587 333.000,298.742 332.903,298.863 332.784 C 298.984 332.665,299.421 332.335,299.833 332.051 C 300.246 331.768,300.754 331.386,300.962 331.203 C 301.170 331.021,301.601 330.694,301.919 330.477 C 302.237 330.261,302.498 330.027,302.499 329.958 C 302.499 329.890,302.612 329.833,302.750 329.833 C 302.887 329.833,303.001 329.777,303.001 329.708 C 303.002 329.640,303.262 329.406,303.580 329.190 C 303.898 328.973,304.332 328.636,304.546 328.440 C 304.759 328.244,305.222 327.858,305.573 327.583 C 305.925 327.308,306.296 327.007,306.398 326.913 C 306.500 326.820,306.958 326.448,307.417 326.087 C 307.875 325.727,308.409 325.259,308.603 325.049 C 308.797 324.839,309.006 324.667,309.069 324.667 C 309.131 324.667,309.352 324.498,309.560 324.292 C 309.768 324.085,310.452 323.467,311.080 322.917 C 314.040 320.325,320.863 313.624,323.553 310.667 C 324.262 309.887,325.051 309.025,325.307 308.750 C 325.564 308.475,326.143 307.800,326.595 307.250 C 327.047 306.700,327.499 306.175,327.600 306.083 C 327.702 305.992,328.181 305.429,328.666 304.833 C 329.151 304.237,329.593 303.712,329.649 303.667 C 329.704 303.621,330.049 303.208,330.414 302.750 C 330.779 302.292,331.135 301.892,331.205 301.861 C 331.276 301.831,331.333 301.699,331.333 301.569 C 331.333 301.440,331.401 301.333,331.485 301.333 C 331.568 301.333,331.849 300.996,332.110 300.584 C 332.370 300.171,332.632 299.834,332.691 299.834 C 332.750 299.833,333.036 299.463,333.327 299.010 C 333.617 298.558,333.910 298.164,333.978 298.135 C 334.045 298.107,334.504 297.502,334.998 296.792 C 335.491 296.081,335.956 295.500,336.031 295.500 C 336.105 295.500,336.167 295.428,336.167 295.341 C 336.167 295.161,336.948 293.971,337.153 293.837 C 337.227 293.789,337.408 293.513,337.556 293.224 C 337.704 292.935,337.921 292.597,338.038 292.474 C 338.155 292.351,338.700 291.575,339.250 290.750 C 339.800 289.925,340.293 289.212,340.346 289.167 C 340.398 289.121,340.623 288.746,340.846 288.333 C 341.068 287.921,341.325 287.492,341.417 287.381 C 341.508 287.269,341.677 287.066,341.792 286.929 C 341.906 286.793,342.000 286.642,342.000 286.594 C 342.000 286.546,342.277 286.074,342.617 285.545 C 343.339 284.418,346.333 279.330,346.333 279.229 C 346.333 279.191,346.519 278.866,346.746 278.506 C 347.740 276.932,353.000 266.485,353.000 266.086 C 353.000 266.044,353.196 265.576,353.436 265.046 C 354.505 262.688,354.667 262.319,354.667 262.235 C 354.667 262.186,354.843 261.757,355.059 261.281 C 355.274 260.806,355.729 259.704,356.070 258.833 C 356.410 257.962,356.759 257.120,356.844 256.961 C 356.930 256.801,357.000 256.557,357.000 256.417 C 357.000 256.277,357.067 256.032,357.150 255.873 C 357.281 255.619,357.605 254.806,357.997 253.750 C 358.065 253.567,358.211 253.117,358.322 252.750 C 358.433 252.383,358.626 251.858,358.750 251.583 C 358.874 251.308,359.325 249.958,359.751 248.583 C 360.178 247.208,360.624 245.783,360.742 245.417 C 360.956 244.751,361.250 243.733,361.523 242.708 C 361.602 242.410,361.745 241.909,361.840 241.594 C 362.180 240.472,363.065 237.018,363.252 236.083 C 363.408 235.300,363.666 234.167,363.915 233.167 C 364.132 232.296,364.363 231.167,364.667 229.500 C 364.742 229.088,364.918 228.150,365.059 227.417 C 365.481 225.222,365.633 224.322,365.833 222.833 C 365.939 222.054,366.127 220.779,366.252 220.000 C 366.377 219.221,366.558 217.833,366.655 216.917 C 366.751 216.000,366.939 214.237,367.074 213.000 C 368.019 204.305,368.019 189.195,367.074 180.500 C 366.939 179.262,366.750 177.500,366.653 176.583 C 366.556 175.667,366.365 174.204,366.229 173.333 C 366.092 172.463,365.908 171.244,365.820 170.626 C 365.498 168.373,365.309 167.228,365.086 166.167 C 364.960 165.571,364.771 164.596,364.665 164.000 C 364.389 162.444,364.170 161.380,363.910 160.333 C 363.785 159.829,363.643 159.192,363.593 158.917 C 363.455 158.142,362.912 155.921,362.414 154.083 C 362.165 153.167,361.789 151.779,361.580 151.000 C 361.370 150.221,361.162 149.471,361.118 149.333 C 361.074 149.196,360.830 148.408,360.577 147.583 C 360.324 146.758,359.787 145.108,359.382 143.917 C 358.978 142.725,358.584 141.525,358.508 141.250 C 358.328 140.606,357.842 139.224,357.570 138.583 C 357.453 138.308,357.196 137.633,357.000 137.083 C 356.804 136.533,356.544 135.858,356.423 135.583 C 356.302 135.308,356.112 134.821,356.001 134.500 C 355.788 133.882,355.711 133.692,355.191 132.500 C 355.012 132.087,354.588 131.075,354.250 130.250 C 353.912 129.425,353.425 128.300,353.168 127.750 C 352.911 127.200,352.423 126.150,352.083 125.417 C 351.446 124.040,350.249 121.607,349.992 121.167 C 349.912 121.029,349.548 120.303,349.184 119.553 C 348.820 118.803,348.279 117.753,347.980 117.220 C 347.682 116.686,347.327 116.025,347.190 115.750 C 347.054 115.475,346.899 115.212,346.846 115.167 C 346.793 115.121,346.541 114.671,346.285 114.167 C 345.800 113.211,345.475 112.642,345.333 112.500 C 345.287 112.454,345.119 112.154,344.959 111.833 C 344.657 111.226,344.310 110.643,344.166 110.500 C 344.120 110.454,343.971 110.192,343.833 109.917 C 343.696 109.642,343.542 109.379,343.491 109.333 C 343.440 109.287,342.990 108.577,342.491 107.753 C 341.992 106.930,340.890 105.216,340.042 103.944 C 339.194 102.672,338.500 101.596,338.500 101.554 C 338.500 101.511,338.406 101.372,338.292 101.244 C 337.839 100.739,337.667 100.510,337.667 100.412 C 337.667 100.356,337.573 100.205,337.458 100.077 C 336.964 99.526,336.833 99.337,336.833 99.174 C 336.833 99.078,336.775 99.000,336.703 99.000 C 336.631 99.000,336.430 98.756,336.257 98.458 C 336.084 98.160,335.895 97.879,335.838 97.833 C 335.781 97.787,335.254 97.075,334.667 96.250 C 334.079 95.425,333.557 94.712,333.507 94.667 C 333.456 94.621,333.193 94.283,332.922 93.917 C 332.651 93.550,332.351 93.167,332.256 93.065 C 332.161 92.963,331.858 92.590,331.583 92.237 C 331.308 91.884,330.952 91.461,330.792 91.297 C 330.631 91.134,330.500 90.931,330.500 90.847 C 330.500 90.763,330.442 90.669,330.372 90.639 C 330.302 90.608,329.946 90.208,329.580 89.750 C 329.215 89.292,328.877 88.879,328.828 88.833 C 328.779 88.787,328.299 88.225,327.762 87.583 C 326.772 86.401,325.263 84.677,323.753 83.004 C 322.386 81.490,313.841 73.001,312.509 71.833 C 311.829 71.237,311.063 70.544,310.808 70.292 C 310.553 70.040,310.302 69.833,310.250 69.833 C 310.198 69.833,309.949 69.627,309.696 69.375 C 309.444 69.123,308.873 68.617,308.429 68.250 C 307.985 67.883,307.500 67.468,307.352 67.328 C 307.204 67.188,306.708 66.775,306.250 66.412 C 305.137 65.529,305.058 65.466,304.012 64.635 C 303.206 63.995,301.317 62.538,300.167 61.670 C 299.938 61.497,298.962 60.796,298.000 60.113 C 297.037 59.430,296.124 58.755,295.971 58.615 C 295.817 58.474,295.517 58.267,295.304 58.155 C 295.091 58.044,294.305 57.513,293.557 56.976 C 292.810 56.439,292.116 56.000,292.016 56.000 C 291.915 56.000,291.833 55.925,291.833 55.833 C 291.833 55.742,291.759 55.667,291.667 55.667 C 291.576 55.667,291.144 55.416,290.709 55.109 C 290.273 54.802,289.804 54.499,289.667 54.436 C 289.529 54.374,288.967 54.023,288.417 53.657 C 287.867 53.291,287.285 52.947,287.125 52.893 C 286.965 52.839,286.833 52.728,286.833 52.647 C 286.833 52.566,286.768 52.500,286.688 52.500 C 286.608 52.500,285.805 52.050,284.903 51.500 C 284.001 50.950,283.166 50.500,283.048 50.500 C 282.930 50.500,282.833 50.425,282.833 50.333 C 282.833 50.242,282.726 50.167,282.595 50.167 C 282.464 50.167,282.258 50.070,282.137 49.952 C 282.016 49.834,281.654 49.607,281.333 49.449 C 281.012 49.290,280.225 48.869,279.583 48.513 C 277.623 47.424,268.672 43.000,268.431 43.000 C 268.391 43.000,267.789 42.737,267.095 42.417 C 266.400 42.096,265.790 41.833,265.739 41.833 C 265.688 41.833,265.257 41.656,264.781 41.439 C 264.306 41.223,263.017 40.692,261.917 40.261 C 260.817 39.829,259.704 39.369,259.445 39.238 C 259.185 39.107,258.866 39.000,258.734 39.000 C 258.603 39.000,258.365 38.927,258.206 38.839 C 258.047 38.750,257.579 38.565,257.167 38.428 C 256.754 38.290,255.779 37.947,255.000 37.666 C 254.221 37.384,253.471 37.123,253.333 37.086 C 253.196 37.050,252.858 36.940,252.583 36.843 C 251.745 36.546,248.630 35.558,247.833 35.337 C 247.421 35.222,246.858 35.056,246.583 34.967 C 246.308 34.879,245.371 34.623,244.500 34.399 C 243.629 34.174,242.542 33.883,242.083 33.752 C 241.081 33.465,238.643 32.842,237.833 32.666 C 232.307 31.466,232.372 31.479,230.000 31.096 C 229.037 30.941,227.785 30.706,227.216 30.573 C 226.647 30.441,225.959 30.333,225.687 30.333 C 225.415 30.333,224.830 30.262,224.388 30.174 C 223.945 30.087,222.908 29.935,222.083 29.836 C 221.258 29.738,219.758 29.551,218.750 29.421 C 217.742 29.291,215.942 29.107,214.750 29.013 C 213.558 28.918,211.533 28.753,210.250 28.646 C 208.156 28.472,193.571 28.282,192.750 28.418 M205.417 114.104 C 206.333 114.239,207.346 114.418,207.667 114.502 C 207.987 114.587,208.761 114.775,209.386 114.922 C 213.158 115.805,219.231 118.514,221.583 120.362 C 221.675 120.434,222.275 120.884,222.917 121.361 C 224.813 122.771,227.345 125.034,228.405 126.267 C 228.949 126.899,229.478 127.492,229.581 127.583 C 229.685 127.675,230.154 128.248,230.624 128.857 C 241.369 142.765,241.574 162.114,231.127 176.292 C 230.201 177.547,227.653 180.500,227.495 180.500 C 227.324 180.500,222.667 175.575,222.667 175.394 C 222.667 175.314,223.042 174.874,223.501 174.416 C 223.960 173.958,224.593 173.233,224.908 172.805 C 226.148 171.119,227.000 169.844,227.000 169.676 C 227.000 169.579,227.075 169.500,227.167 169.500 C 227.258 169.500,227.333 169.428,227.333 169.341 C 227.333 169.253,227.568 168.784,227.854 168.299 C 228.546 167.128,229.601 164.715,230.099 163.167 C 230.873 160.758,230.970 160.409,231.145 159.417 C 231.241 158.867,231.417 157.892,231.535 157.250 C 231.662 156.561,231.750 154.787,231.750 152.917 C 231.750 151.047,231.662 149.272,231.535 148.583 C 231.417 147.942,231.241 146.967,231.145 146.417 C 230.969 145.418,230.858 145.021,230.096 142.667 C 229.513 140.866,228.275 138.100,227.451 136.755 C 225.528 133.615,223.875 131.591,221.241 129.149 C 219.773 127.788,217.039 125.667,216.753 125.667 C 216.709 125.667,216.278 125.417,215.795 125.113 C 215.010 124.617,213.505 123.857,211.833 123.111 C 211.042 122.757,208.239 121.830,207.417 121.650 C 203.634 120.820,200.400 120.553,197.359 120.820 C 194.756 121.049,192.066 121.510,190.667 121.968 C 190.346 122.073,189.596 122.319,189.000 122.513 C 186.586 123.302,181.126 126.183,180.500 126.998 C 180.454 127.058,180.004 127.413,179.500 127.788 C 175.791 130.544,171.466 136.392,169.668 141.083 C 169.597 141.267,169.419 141.717,169.272 142.083 C 168.983 142.800,168.559 144.308,168.321 145.469 C 168.239 145.865,168.137 146.246,168.094 146.316 C 167.355 147.512,167.355 158.321,168.094 159.518 C 168.137 159.587,168.239 159.968,168.321 160.364 C 168.551 161.486,168.980 163.026,169.240 163.667 C 169.370 163.987,169.612 164.587,169.778 165.000 C 170.939 167.887,173.298 171.730,175.245 173.905 C 176.606 175.426,176.750 175.018,173.877 177.785 L 171.417 180.154 170.667 179.359 C 169.329 177.940,167.056 175.017,166.435 173.917 C 166.280 173.642,165.889 172.967,165.566 172.417 C 165.052 171.539,163.725 168.861,163.338 167.917 C 162.810 166.631,162.504 165.785,162.253 164.917 C 162.094 164.367,161.865 163.579,161.745 163.167 C 161.625 162.754,161.448 162.042,161.352 161.583 C 161.255 161.125,161.094 160.377,160.993 159.920 C 160.196 156.317,160.186 149.526,160.972 146.000 C 161.064 145.587,161.231 144.800,161.343 144.250 C 161.649 142.754,162.700 139.352,163.275 138.000 C 163.806 136.752,165.575 133.247,165.701 133.194 C 165.774 133.164,165.833 133.064,165.833 132.972 C 165.833 132.776,167.727 129.933,168.186 129.441 C 168.359 129.256,168.500 129.053,168.500 128.991 C 168.500 128.443,174.024 122.938,175.862 121.653 C 176.167 121.440,176.454 121.224,176.500 121.173 C 176.636 121.022,179.028 119.450,179.750 119.037 C 182.794 117.296,187.132 115.536,190.083 114.843 C 190.542 114.735,191.181 114.579,191.503 114.495 C 194.559 113.703,201.383 113.511,205.417 114.104 M204.050 125.418 C 204.710 125.556,205.625 125.750,206.083 125.849 C 207.058 126.059,210.229 127.108,210.833 127.421 C 211.063 127.539,211.662 127.833,212.167 128.075 C 213.137 128.539,213.215 128.584,214.635 129.500 C 216.016 130.391,216.216 130.532,217.098 131.247 C 219.007 132.793,221.269 135.246,222.481 137.083 C 222.904 137.725,223.295 138.287,223.350 138.333 C 224.105 138.961,226.425 144.901,226.832 147.250 C 226.943 147.892,227.106 148.792,227.193 149.250 C 227.816 152.506,227.307 157.792,225.994 161.713 C 224.792 165.300,220.509 172.333,219.527 172.333 C 219.387 172.333,214.833 167.642,214.833 167.498 C 214.833 167.436,215.206 166.960,215.660 166.440 C 218.194 163.544,219.738 160.107,220.417 155.848 C 220.975 152.344,220.128 146.104,218.867 144.441 C 218.788 144.336,218.624 143.987,218.503 143.667 C 217.752 141.677,214.447 137.721,212.083 135.985 C 201.047 127.876,185.322 132.312,180.126 145.000 C 177.487 151.446,178.213 158.532,182.134 164.583 C 182.550 165.225,182.943 165.787,183.008 165.833 C 183.074 165.879,183.403 166.248,183.741 166.654 L 184.355 167.391 181.971 169.779 C 179.172 172.583,179.601 172.428,178.490 171.042 C 177.994 170.423,177.547 169.879,177.497 169.833 C 177.303 169.654,176.167 167.993,176.167 167.888 C 176.167 167.826,176.062 167.658,175.935 167.513 C 175.654 167.193,174.317 164.642,174.007 163.833 C 173.884 163.512,173.691 163.025,173.578 162.750 C 173.301 162.075,173.073 161.383,172.866 160.583 C 172.771 160.217,172.608 159.593,172.503 159.198 C 171.479 155.316,171.624 149.630,172.860 145.250 C 173.558 142.774,175.134 139.222,175.933 138.320 C 176.062 138.175,176.167 137.998,176.167 137.926 C 176.167 136.799,181.221 131.713,184.419 129.622 C 190.071 125.927,198.183 124.189,204.050 125.418 M202.917 136.580 C 205.681 137.164,207.698 138.105,209.917 139.845 C 217.415 145.727,218.405 156.690,212.095 163.964 L 211.765 164.344 209.383 161.966 C 208.072 160.658,207.000 159.540,207.000 159.483 C 207.000 159.425,207.322 158.898,207.715 158.311 C 211.275 153.002,208.717 145.522,202.705 143.665 C 193.975 140.969,186.752 149.885,191.210 157.856 C 191.546 158.457,191.936 159.045,192.077 159.162 C 192.532 159.539,192.371 159.757,189.897 162.099 L 187.460 164.407 187.052 163.912 C 180.382 155.820,182.337 143.307,191.000 138.653 C 191.412 138.431,191.787 138.203,191.833 138.146 C 191.947 138.003,194.261 137.086,195.083 136.858 C 197.146 136.285,200.890 136.152,202.917 136.580 M264.750 163.753 C 275.095 165.153,282.630 171.597,285.494 181.493 C 285.922 182.972,286.046 183.596,286.497 186.514 C 286.602 187.191,286.667 192.918,286.667 201.500 C 286.667 210.082,286.602 215.809,286.497 216.486 C 286.404 217.090,286.246 218.108,286.147 218.750 C 286.047 219.392,285.893 220.142,285.803 220.417 C 285.714 220.692,285.533 221.329,285.401 221.833 C 285.270 222.338,285.096 222.900,285.014 223.083 C 284.933 223.267,284.661 223.919,284.412 224.532 C 283.883 225.833,283.756 225.611,285.917 227.159 C 286.742 227.749,287.454 228.274,287.500 228.325 C 287.597 228.431,289.627 229.952,291.083 231.008 C 291.633 231.407,292.175 231.823,292.287 231.934 C 292.399 232.044,292.756 232.298,293.080 232.498 C 293.739 232.905,293.751 232.852,292.679 234.227 C 292.260 234.765,291.729 235.451,291.500 235.752 C 291.113 236.260,288.350 239.830,288.223 239.986 C 288.147 240.079,287.414 239.681,287.044 239.347 C 286.883 239.200,286.188 238.670,285.500 238.169 C 284.813 237.668,284.212 237.217,284.167 237.165 C 284.121 237.114,283.671 236.775,283.167 236.412 C 282.662 236.048,282.137 235.659,282.000 235.546 C 281.862 235.434,281.045 234.820,280.183 234.182 L 278.615 233.023 277.766 233.720 C 277.299 234.103,276.879 234.460,276.833 234.514 C 276.350 235.075,272.587 237.129,270.833 237.789 C 263.928 240.387,254.517 240.056,248.356 236.998 C 247.194 236.422,244.799 235.032,244.667 234.858 C 244.621 234.797,244.283 234.528,243.917 234.259 C 242.896 233.511,240.710 231.348,240.033 230.417 C 239.700 229.958,239.381 229.546,239.325 229.500 C 238.635 228.940,236.522 224.625,235.774 222.250 C 234.349 217.722,234.332 217.479,234.335 201.500 C 234.337 186.662,234.328 186.879,235.087 183.213 C 237.317 172.447,245.747 164.903,256.917 163.677 C 257.833 163.576,258.808 163.464,259.083 163.428 C 259.854 163.328,262.898 163.503,264.750 163.753 M333.921 163.977 C 334.377 164.062,335.275 164.221,335.917 164.329 C 337.923 164.667,340.315 165.473,342.417 166.518 C 344.829 167.719,347.583 169.850,349.083 171.680 C 349.415 172.085,349.795 172.549,349.928 172.711 C 351.943 175.178,354.006 179.528,354.690 182.750 C 354.787 183.208,354.934 183.883,355.015 184.250 C 355.515 186.493,355.663 190.442,355.665 201.575 C 355.667 214.922,355.418 218.681,354.342 221.562 C 354.269 221.757,354.119 222.217,354.009 222.583 C 352.128 228.831,346.787 234.883,341.333 236.948 C 336.055 238.946,330.370 239.730,325.821 239.088 C 321.616 238.495,315.662 236.721,315.361 235.972 C 315.331 235.896,315.230 235.833,315.138 235.833 C 313.870 235.833,309.032 231.022,307.189 227.928 C 305.591 225.245,304.284 221.823,303.780 219.000 C 303.119 215.306,303.083 214.397,303.083 201.500 C 303.083 188.075,303.158 186.599,304.029 182.833 C 304.513 180.742,306.450 175.854,306.858 175.694 C 306.936 175.664,307.000 175.572,307.000 175.489 C 307.000 175.341,308.131 173.493,308.320 173.333 C 308.374 173.287,308.637 172.950,308.905 172.583 C 309.526 171.731,311.717 169.541,312.583 168.907 C 312.950 168.638,313.287 168.375,313.333 168.321 C 313.556 168.060,315.866 166.669,316.750 166.263 C 317.300 166.011,317.881 165.735,318.041 165.651 C 318.466 165.428,320.821 164.639,321.500 164.493 C 321.821 164.423,322.496 164.277,323.000 164.168 C 325.201 163.689,331.778 163.574,333.921 163.977 M96.167 169.250 L 96.167 174.333 85.750 174.333 L 75.333 174.333 75.333 206.583 L 75.333 238.833 70.000 238.833 L 64.667 238.833 64.667 206.583 L 64.667 174.333 54.167 174.333 L 43.667 174.333 43.667 169.250 L 43.667 164.167 69.917 164.167 L 96.167 164.167 96.167 169.250 M139.417 164.346 C 140.707 164.521,144.268 165.388,144.815 165.659 C 144.962 165.733,145.567 166.008,146.159 166.271 C 151.589 168.688,155.825 174.050,157.069 180.083 C 158.000 184.597,157.635 191.257,156.313 193.873 C 156.232 194.032,156.167 194.243,156.167 194.341 C 156.167 194.786,154.712 197.542,153.756 198.909 C 151.541 202.078,148.083 204.674,144.299 206.010 L 143.682 206.228 144.786 208.322 C 145.394 209.474,146.188 210.979,146.551 211.667 C 148.563 215.477,149.374 217.018,149.838 217.917 C 150.384 218.971,151.085 220.301,152.824 223.583 C 153.407 224.683,154.219 226.221,154.628 227.000 C 155.037 227.779,155.767 229.167,156.251 230.083 C 157.276 232.024,157.992 233.383,159.651 236.542 L 160.855 238.833 154.526 238.833 L 148.196 238.833 146.119 234.708 C 144.976 232.440,141.415 225.371,138.204 219.000 L 132.366 207.417 124.683 207.373 L 117.000 207.330 117.000 223.082 L 117.000 238.833 111.667 238.833 L 106.333 238.833 106.333 201.500 L 106.333 164.167 122.208 164.166 C 132.722 164.165,138.534 164.226,139.417 164.346 M199.619 165.961 C 199.977 166.956,204.837 181.365,205.000 181.917 C 205.082 182.192,206.092 185.192,207.245 188.583 C 208.398 191.975,209.532 195.350,209.764 196.083 C 209.996 196.817,210.292 197.679,210.421 198.000 C 210.551 198.321,210.814 199.108,211.006 199.750 C 211.199 200.392,211.458 201.179,211.582 201.500 C 211.787 202.030,212.290 203.538,213.167 206.250 C 213.345 206.800,214.581 210.475,215.914 214.417 C 217.247 218.358,219.473 224.958,220.861 229.083 C 222.250 233.208,223.496 236.905,223.631 237.298 C 223.766 237.691,223.838 238.051,223.791 238.098 C 223.713 238.176,222.154 237.060,221.167 236.218 C 220.698 235.819,217.586 233.315,216.734 232.652 C 216.429 232.415,215.895 231.991,215.548 231.710 C 213.636 230.165,213.043 229.697,212.349 229.181 C 211.928 228.868,211.546 228.564,211.500 228.505 C 211.412 228.393,207.721 225.414,206.686 224.621 C 205.949 224.056,205.422 223.629,203.419 221.972 C 202.569 221.269,201.213 220.199,200.516 219.681 C 200.095 219.368,199.725 219.049,199.694 218.972 C 199.591 218.714,199.309 218.831,198.529 219.458 C 197.035 220.660,195.580 221.860,195.167 222.229 C 194.938 222.435,194.412 222.859,194.000 223.172 C 193.588 223.485,193.213 223.783,193.167 223.835 C 193.121 223.886,192.709 224.225,192.251 224.589 C 191.162 225.454,189.360 226.928,188.830 227.387 C 188.600 227.586,188.075 228.011,187.664 228.329 C 187.253 228.647,186.879 228.952,186.833 229.005 C 186.723 229.133,184.474 230.958,183.697 231.551 C 183.359 231.808,182.746 232.311,182.333 232.668 C 181.921 233.026,181.312 233.528,180.980 233.784 C 179.883 234.631,177.919 236.233,177.750 236.419 C 177.658 236.520,177.321 236.797,177.000 237.034 C 176.679 237.272,176.251 237.624,176.049 237.816 C 175.596 238.247,175.252 238.279,175.416 237.875 C 175.481 237.715,175.668 237.133,175.830 236.583 C 175.993 236.033,176.611 234.121,177.205 232.333 C 177.798 230.546,178.827 227.396,179.489 225.333 C 180.152 223.271,180.793 221.321,180.914 221.000 C 181.034 220.679,181.248 220.042,181.389 219.583 C 181.530 219.125,181.726 218.525,181.825 218.250 C 182.001 217.759,183.585 212.909,185.664 206.500 C 186.243 204.713,187.128 202.012,187.630 200.500 C 188.132 198.987,188.678 197.300,188.845 196.750 C 189.011 196.200,189.273 195.412,189.426 195.000 C 189.579 194.588,189.840 193.800,190.007 193.250 C 190.174 192.700,190.455 191.838,190.632 191.333 C 190.809 190.829,191.424 188.954,192.000 187.167 C 192.575 185.379,193.478 182.604,194.007 181.000 C 194.536 179.396,195.161 177.483,195.396 176.750 C 196.277 173.995,196.529 173.234,196.748 172.667 C 196.872 172.346,197.474 170.522,198.086 168.613 C 198.698 166.704,199.243 165.187,199.297 165.241 C 199.351 165.295,199.496 165.619,199.619 165.961 M258.083 174.096 C 255.850 174.487,255.280 174.665,253.167 175.637 C 249.586 177.283,246.660 181.377,245.540 186.309 C 245.150 188.022,245.094 214.501,245.476 216.333 C 245.797 217.874,246.805 220.796,247.271 221.534 C 247.489 221.878,247.667 222.202,247.667 222.254 C 247.667 222.305,247.971 222.759,248.343 223.263 C 251.813 227.961,257.827 229.989,264.333 228.655 C 267.104 228.087,270.565 226.017,272.028 224.052 C 272.425 223.519,272.834 222.994,272.936 222.885 C 273.261 222.540,274.602 219.780,274.825 219.000 C 274.942 218.588,275.105 218.063,275.185 217.833 C 275.770 216.174,275.827 214.738,275.830 201.545 C 275.834 186.529,275.776 185.838,274.238 182.552 C 274.015 182.076,273.833 181.608,273.833 181.510 C 273.833 181.413,273.758 181.333,273.667 181.333 C 273.575 181.333,273.500 181.264,273.500 181.178 C 273.500 179.722,269.297 176.130,266.083 174.839 C 263.969 173.989,260.525 173.669,258.083 174.096 M326.583 174.153 C 319.554 175.480,315.434 179.932,314.247 187.485 C 313.883 189.797,313.885 212.953,314.248 215.544 C 314.568 217.822,315.812 221.481,316.500 222.167 C 316.546 222.213,316.696 222.468,316.834 222.734 C 317.505 224.034,320.570 226.734,322.234 227.493 C 330.882 231.432,340.721 227.715,343.518 219.451 C 344.667 216.057,344.583 217.463,344.583 201.583 C 344.583 185.927,344.641 187.000,343.632 183.917 C 343.331 182.996,342.529 181.196,342.333 181.000 C 342.287 180.954,342.146 180.729,342.019 180.500 C 339.446 175.862,332.551 173.027,326.583 174.153 M117.000 185.833 L 117.000 197.333 126.571 197.333 C 136.777 197.333,138.043 197.260,139.917 196.555 C 142.624 195.538,145.004 192.916,145.699 190.184 C 146.651 186.443,146.489 183.037,145.226 180.203 C 145.010 179.719,144.833 179.251,144.833 179.162 C 144.833 179.073,144.758 179.000,144.667 179.000 C 144.575 179.000,144.500 178.888,144.500 178.751 C 144.500 178.141,142.116 175.968,140.750 175.332 C 138.570 174.318,138.774 174.333,127.414 174.333 L 117.000 174.333 117.000 185.833 " stroke="none" fill="#24bcfc" fill-rule="evenodd"></path><path id="path1" d="M256.250 163.761 C 252.435 164.422,250.275 165.092,247.780 166.390 C 244.433 168.132,242.146 169.992,240.028 172.695 C 239.283 173.646,237.333 176.701,237.333 176.918 C 237.333 176.958,237.142 177.424,236.907 177.953 C 236.673 178.483,236.416 179.067,236.336 179.250 C 236.055 179.894,235.530 181.594,235.281 182.667 C 234.357 186.647,234.417 185.354,234.417 201.500 C 234.417 217.646,234.356 216.326,235.280 220.333 C 237.090 228.190,242.044 234.141,249.583 237.517 C 258.099 241.330,271.759 239.439,277.794 233.612 C 278.587 232.847,278.612 232.850,279.862 233.869 C 280.167 234.117,281.354 235.013,282.500 235.858 C 283.646 236.704,284.621 237.441,284.667 237.495 C 284.712 237.550,285.275 237.960,285.917 238.406 C 286.558 238.852,287.294 239.411,287.551 239.648 L 288.018 240.080 288.467 239.551 C 288.714 239.260,289.329 238.484,289.833 237.827 C 290.675 236.729,291.430 235.762,292.750 234.089 C 293.445 233.208,293.556 232.989,293.392 232.828 C 293.314 232.751,292.275 231.965,291.083 231.083 C 288.824 229.409,288.554 229.207,287.352 228.301 C 286.950 227.998,286.461 227.637,286.266 227.500 C 286.070 227.362,285.461 226.919,284.913 226.515 C 284.365 226.111,283.898 225.768,283.876 225.753 C 283.854 225.737,283.978 225.430,284.152 225.070 C 285.394 222.500,286.179 219.211,286.509 215.200 C 286.767 212.061,286.637 186.959,286.356 185.583 C 286.244 185.033,286.072 184.171,285.974 183.667 C 285.758 182.553,284.702 179.077,284.404 178.500 C 284.286 178.271,283.913 177.521,283.575 176.833 C 281.880 173.389,278.786 169.769,276.083 168.072 C 275.808 167.899,275.546 167.716,275.500 167.665 C 275.390 167.543,273.530 166.469,273.000 166.222 C 271.514 165.527,270.665 165.167,270.516 165.167 C 270.422 165.167,270.098 165.061,269.797 164.933 C 266.963 163.721,259.972 163.116,256.250 163.761 M325.583 163.851 C 318.255 164.744,311.686 168.361,308.400 173.312 C 305.357 177.899,304.298 180.724,303.419 186.603 C 302.749 191.085,303.118 215.774,303.910 219.417 C 305.768 227.963,311.408 234.970,318.250 237.233 C 320.236 237.890,320.427 237.943,322.417 238.393 C 326.171 239.242,330.685 239.452,333.583 238.912 C 334.317 238.775,335.297 238.595,335.762 238.512 C 336.847 238.318,340.092 237.387,340.775 237.074 C 341.064 236.942,341.378 236.833,341.472 236.833 C 341.904 236.833,344.699 235.246,345.750 234.404 C 348.777 231.978,350.654 229.681,352.425 226.234 C 353.933 223.298,354.812 220.230,355.358 216.000 C 355.679 213.507,355.683 189.535,355.362 187.000 C 354.407 179.452,351.787 174.035,347.000 169.715 C 345.772 168.607,344.290 167.500,344.033 167.500 C 343.939 167.500,343.836 167.435,343.806 167.355 C 343.712 167.110,340.663 165.702,339.250 165.251 C 335.143 163.939,329.556 163.367,325.583 163.851 M43.667 169.333 L 43.667 174.333 54.167 174.333 L 64.667 174.333 64.667 206.583 L 64.667 238.833 69.917 238.833 L 75.167 238.833 75.167 206.583 L 75.167 174.333 85.667 174.333 L 96.167 174.333 96.167 169.333 L 96.167 164.333 69.917 164.333 L 43.667 164.333 43.667 169.333 M106.333 201.586 L 106.333 238.838 111.625 238.794 L 116.917 238.750 116.959 223.040 L 117.002 207.330 124.709 207.373 L 132.417 207.417 135.083 212.712 C 136.550 215.625,140.112 222.694,143.000 228.421 L 148.250 238.833 154.458 238.833 C 157.873 238.833,160.667 238.797,160.667 238.753 C 160.667 238.580,158.843 235.022,157.504 232.583 C 157.252 232.125,156.605 230.887,156.065 229.833 C 155.525 228.779,155.045 227.879,154.999 227.833 C 154.953 227.787,154.670 227.262,154.372 226.667 C 154.073 226.071,153.449 224.871,152.985 224.000 C 152.521 223.129,151.537 221.254,150.799 219.833 C 150.060 218.412,149.325 217.025,149.165 216.750 C 149.004 216.475,148.424 215.387,147.876 214.333 C 147.328 213.279,146.444 211.592,145.912 210.583 C 145.379 209.575,144.656 208.189,144.305 207.504 L 143.666 206.258 144.375 205.954 C 153.327 202.118,157.493 195.702,157.494 185.750 C 157.495 174.257,151.311 166.550,140.500 164.569 C 139.495 164.385,136.024 164.339,122.792 164.337 L 106.333 164.333 106.333 201.586 M198.187 168.471 C 197.608 170.274,197.034 172.012,196.912 172.333 C 196.686 172.927,196.382 173.853,195.494 176.651 C 195.221 177.513,194.598 179.425,194.110 180.901 C 193.622 182.376,192.677 185.271,192.011 187.333 C 191.345 189.396,190.702 191.346,190.581 191.667 C 190.368 192.233,187.980 199.544,185.627 206.833 C 184.991 208.804,184.370 210.679,184.247 211.000 C 184.124 211.321,183.599 212.933,183.080 214.583 C 182.561 216.233,182.060 217.771,181.967 218.000 C 181.875 218.229,181.586 219.092,181.326 219.917 C 181.067 220.742,180.774 221.642,180.677 221.917 C 180.480 222.472,179.254 226.238,177.177 232.667 C 176.422 235.004,175.699 237.163,175.569 237.464 C 175.439 237.765,175.333 238.054,175.333 238.105 C 175.333 238.250,176.238 237.642,176.860 237.080 C 177.166 236.803,177.867 236.223,178.417 235.792 C 178.967 235.361,179.867 234.633,180.417 234.173 C 180.967 233.714,181.867 232.988,182.417 232.560 C 182.967 232.132,183.492 231.697,183.583 231.593 C 183.675 231.490,184.224 231.033,184.804 230.578 C 185.384 230.122,186.178 229.487,186.569 229.167 C 187.905 228.069,190.544 225.917,191.167 225.417 C 192.610 224.257,194.256 222.912,194.333 222.828 C 194.379 222.779,194.790 222.441,195.245 222.078 C 195.701 221.714,196.821 220.799,197.734 220.043 C 199.173 218.851,199.428 218.699,199.655 218.894 C 200.341 219.483,202.622 221.311,203.301 221.816 C 203.719 222.127,204.307 222.605,204.608 222.878 C 204.908 223.151,205.372 223.534,205.639 223.729 C 205.906 223.924,206.527 224.410,207.020 224.808 C 207.513 225.207,208.179 225.743,208.500 226.000 C 208.821 226.257,209.487 226.793,209.981 227.192 C 210.475 227.590,211.121 228.104,211.417 228.333 C 212.036 228.813,213.483 229.974,214.333 230.673 C 214.654 230.937,215.188 231.362,215.520 231.618 C 216.431 232.321,220.238 235.385,220.333 235.492 C 220.379 235.543,220.829 235.903,221.333 236.291 C 221.838 236.678,222.580 237.260,222.984 237.583 C 223.883 238.304,223.912 238.281,223.524 237.152 C 223.353 236.656,222.154 233.100,220.858 229.250 C 219.563 225.400,217.338 218.800,215.913 214.583 C 214.487 210.367,213.179 206.467,213.006 205.917 C 212.832 205.367,212.542 204.504,212.361 204.000 C 212.179 203.496,211.872 202.596,211.678 202.000 C 210.614 198.736,210.087 197.160,207.333 189.000 C 205.678 184.096,203.281 176.971,202.006 173.167 C 200.731 169.362,199.587 166.012,199.464 165.721 C 199.243 165.198,199.226 165.235,198.187 168.471 M262.917 174.068 C 264.458 174.303,265.672 174.589,266.147 174.827 C 266.295 174.901,266.829 175.138,267.333 175.353 C 270.764 176.818,273.867 180.458,274.988 184.333 C 275.108 184.746,275.276 185.308,275.362 185.583 C 276.287 188.536,276.292 214.565,275.368 217.417 C 275.278 217.692,275.108 218.254,274.988 218.667 C 273.559 223.595,269.569 227.421,264.557 228.668 C 262.910 229.077,258.507 229.194,257.244 228.861 C 256.881 228.765,256.208 228.596,255.750 228.486 C 251.977 227.580,247.871 223.810,246.508 220.000 C 246.394 219.679,246.241 219.267,246.168 219.083 C 245.225 216.692,245.173 215.782,245.173 201.500 C 245.173 186.487,245.162 186.653,246.385 183.333 C 248.828 176.701,255.535 172.942,262.917 174.068 M331.750 174.071 C 338.447 174.981,342.703 179.172,344.408 186.534 C 344.795 188.206,344.796 214.785,344.410 216.466 C 343.085 222.223,340.481 225.726,335.991 227.790 C 332.422 229.431,326.632 229.514,323.167 227.974 C 322.938 227.872,322.563 227.707,322.333 227.608 C 318.526 225.953,315.487 221.777,314.310 216.583 C 313.976 215.108,313.978 188.081,314.313 186.500 C 315.042 183.057,316.486 180.231,318.598 178.114 C 319.603 177.107,322.109 175.333,322.527 175.333 C 322.659 175.333,322.838 175.271,322.925 175.194 C 324.007 174.243,328.662 173.651,331.750 174.071 M138.138 174.411 C 142.031 175.096,144.612 177.583,145.929 181.917 C 146.356 183.321,146.369 188.151,145.950 189.500 C 145.613 190.586,144.976 192.215,144.843 192.333 C 144.792 192.379,144.637 192.641,144.500 192.916 C 144.192 193.530,142.144 195.613,141.628 195.836 C 141.420 195.926,141.137 196.066,141.000 196.147 C 139.184 197.220,139.113 197.226,127.625 197.294 L 117.000 197.357 117.000 185.762 L 117.000 174.167 126.875 174.167 C 134.805 174.167,137.023 174.215,138.138 174.411 " stroke="none" fill="#044484" fill-rule="evenodd"></path><path id="path2" d="M196.333 113.829 C 194.479 113.967,192.474 114.243,191.503 114.495 C 191.181 114.579,190.542 114.735,190.083 114.843 C 187.132 115.536,182.794 117.296,179.750 119.037 C 179.028 119.450,176.636 121.022,176.500 121.173 C 176.454 121.224,176.167 121.440,175.862 121.653 C 174.024 122.938,168.500 128.443,168.500 128.991 C 168.500 129.053,168.359 129.256,168.186 129.441 C 167.727 129.933,165.833 132.776,165.833 132.972 C 165.833 133.064,165.774 133.164,165.701 133.194 C 165.575 133.247,163.806 136.752,163.275 138.000 C 162.700 139.352,161.649 142.754,161.343 144.250 C 161.231 144.800,161.064 145.587,160.972 146.000 C 160.186 149.526,160.196 156.317,160.993 159.920 C 161.094 160.377,161.255 161.125,161.352 161.583 C 161.448 162.042,161.625 162.754,161.745 163.167 C 161.865 163.579,162.094 164.367,162.253 164.917 C 162.504 165.785,162.810 166.631,163.338 167.917 C 163.725 168.861,165.052 171.539,165.566 172.417 C 165.889 172.967,166.280 173.642,166.435 173.917 C 167.056 175.017,169.329 177.940,170.667 179.359 L 171.417 180.154 173.877 177.785 C 176.750 175.018,176.606 175.426,175.245 173.905 C 173.298 171.730,170.939 167.887,169.778 165.000 C 169.612 164.587,169.370 163.987,169.240 163.667 C 168.980 163.026,168.551 161.486,168.321 160.364 C 168.239 159.968,168.137 159.587,168.094 159.518 C 167.355 158.321,167.355 147.512,168.094 146.316 C 168.137 146.246,168.239 145.865,168.321 145.469 C 168.559 144.308,168.983 142.800,169.272 142.083 C 169.419 141.717,169.597 141.267,169.668 141.083 C 171.466 136.392,175.791 130.544,179.500 127.788 C 180.004 127.413,180.454 127.058,180.500 126.998 C 181.126 126.183,186.586 123.302,189.000 122.513 C 189.596 122.319,190.346 122.073,190.667 121.968 C 192.066 121.510,194.756 121.049,197.359 120.820 C 201.925 120.420,207.936 121.371,211.833 123.111 C 213.505 123.857,215.010 124.617,215.795 125.113 C 216.278 125.417,216.709 125.667,216.753 125.667 C 217.039 125.667,219.773 127.788,221.241 129.149 C 223.875 131.591,225.528 133.615,227.451 136.755 C 228.275 138.100,229.513 140.866,230.096 142.667 C 230.858 145.021,230.969 145.418,231.145 146.417 C 231.241 146.967,231.417 147.942,231.535 148.583 C 231.662 149.272,231.750 151.047,231.750 152.917 C 231.750 154.787,231.662 156.561,231.535 157.250 C 231.417 157.892,231.241 158.867,231.145 159.417 C 230.970 160.409,230.873 160.758,230.099 163.167 C 229.601 164.715,228.546 167.128,227.854 168.299 C 227.568 168.784,227.333 169.253,227.333 169.341 C 227.333 169.428,227.258 169.500,227.167 169.500 C 227.075 169.500,227.000 169.579,227.000 169.676 C 227.000 169.844,226.148 171.119,224.908 172.805 C 224.593 173.233,223.960 173.958,223.501 174.416 C 223.042 174.874,222.667 175.314,222.667 175.394 C 222.667 175.575,227.324 180.500,227.495 180.500 C 227.653 180.500,230.201 177.547,231.127 176.292 C 241.574 162.114,241.369 142.765,230.624 128.857 C 230.154 128.248,229.685 127.675,229.581 127.583 C 229.478 127.492,228.949 126.899,228.405 126.267 C 227.345 125.034,224.813 122.771,222.917 121.361 C 222.275 120.884,221.675 120.434,221.583 120.362 C 219.231 118.514,213.158 115.805,209.386 114.922 C 208.761 114.775,207.987 114.587,207.667 114.502 C 205.445 113.918,199.708 113.578,196.333 113.829 M194.250 125.594 C 189.160 126.690,185.211 128.627,181.300 131.945 C 179.579 133.405,176.167 137.381,176.167 137.926 C 176.167 137.998,176.062 138.175,175.933 138.320 C 175.134 139.222,173.558 142.774,172.860 145.250 C 171.624 149.630,171.479 155.316,172.503 159.198 C 172.608 159.593,172.771 160.217,172.866 160.583 C 173.073 161.383,173.301 162.075,173.578 162.750 C 173.691 163.025,173.884 163.512,174.007 163.833 C 174.317 164.642,175.654 167.193,175.935 167.513 C 176.062 167.658,176.167 167.826,176.167 167.888 C 176.167 167.993,177.303 169.654,177.497 169.833 C 177.547 169.879,177.994 170.423,178.490 171.042 C 179.601 172.428,179.172 172.583,181.971 169.779 L 184.355 167.391 183.741 166.654 C 183.403 166.248,183.074 165.879,183.008 165.833 C 182.943 165.787,182.550 165.225,182.134 164.583 C 176.488 155.869,177.606 145.141,184.911 137.930 C 192.258 130.677,203.740 129.855,212.083 135.985 C 214.447 137.721,217.752 141.677,218.503 143.667 C 218.624 143.987,218.788 144.336,218.867 144.441 C 218.947 144.546,219.202 145.184,219.434 145.858 C 221.513 151.900,220.841 158.525,217.621 163.747 C 216.939 164.852,216.391 165.605,215.660 166.440 C 215.206 166.960,214.833 167.436,214.833 167.498 C 214.833 167.642,219.387 172.333,219.527 172.333 C 220.509 172.333,224.792 165.300,225.994 161.713 C 227.307 157.792,227.816 152.506,227.193 149.250 C 227.106 148.792,226.943 147.892,226.832 147.250 C 226.425 144.901,224.105 138.961,223.350 138.333 C 223.295 138.287,222.904 137.725,222.481 137.083 C 221.269 135.246,219.007 132.793,217.098 131.247 C 216.216 130.532,216.016 130.391,214.635 129.500 C 213.215 128.584,213.137 128.539,212.167 128.075 C 211.662 127.833,211.063 127.539,210.833 127.421 C 210.229 127.108,207.058 126.059,206.083 125.849 C 203.034 125.191,202.797 125.167,199.467 125.183 C 196.577 125.197,195.816 125.257,194.250 125.594 M196.500 136.521 C 195.011 136.822,192.074 137.845,191.833 138.146 C 191.787 138.203,191.412 138.431,191.000 138.653 C 182.337 143.307,180.382 155.820,187.052 163.912 L 187.460 164.407 189.897 162.099 C 192.371 159.757,192.532 159.539,192.077 159.162 C 191.936 159.045,191.546 158.457,191.210 157.856 C 186.752 149.885,193.975 140.969,202.705 143.665 C 208.717 145.522,211.275 153.002,207.715 158.311 C 207.322 158.898,207.000 159.425,207.000 159.483 C 207.000 159.540,208.072 160.658,209.383 161.966 L 211.765 164.344 212.095 163.964 C 219.003 156.001,217.090 143.999,208.041 138.531 C 204.955 136.667,200.023 135.808,196.500 136.521 " stroke="none" fill="#fcfcfc" fill-rule="evenodd"></path><path id="path3" d="" stroke="none" fill="#149c100" fill-rule="evenodd"></path><path id="path4" d="M332.708 163.948 C 332.869 163.990,333.131 163.990,333.292 163.948 C 333.452 163.906,333.321 163.872,333.000 163.872 C 332.679 163.872,332.548 163.906,332.708 163.948 M346.500 169.219 C 346.500 169.248,346.744 169.491,347.042 169.760 L 347.583 170.250 347.094 169.708 C 346.638 169.203,346.500 169.090,346.500 169.219 M249.661 178.125 L 248.750 179.083 249.708 178.172 C 250.235 177.671,250.667 177.240,250.667 177.214 C 250.667 177.090,250.507 177.235,249.661 178.125 M157.564 185.750 C 157.564 186.850,157.591 187.278,157.624 186.702 C 157.656 186.125,157.656 185.225,157.623 184.702 C 157.590 184.178,157.563 184.650,157.564 185.750 M286.548 187.917 C 286.549 188.375,286.581 188.543,286.620 188.289 C 286.658 188.036,286.657 187.661,286.617 187.456 C 286.578 187.251,286.546 187.458,286.548 187.917 M344.539 187.833 C 344.539 188.154,344.573 188.285,344.615 188.125 C 344.657 187.965,344.657 187.702,344.615 187.542 C 344.573 187.381,344.539 187.512,344.539 187.833 M275.912 201.500 C 275.912 208.146,275.933 210.865,275.958 207.542 C 275.984 204.219,275.984 198.781,275.958 195.458 C 275.933 192.135,275.912 194.854,275.912 201.500 M286.548 215.083 C 286.549 215.542,286.581 215.709,286.620 215.456 C 286.658 215.203,286.657 214.828,286.617 214.623 C 286.578 214.418,286.546 214.625,286.548 215.083 M355.205 217.000 C 355.205 217.321,355.240 217.452,355.282 217.292 C 355.323 217.131,355.323 216.869,355.282 216.708 C 355.240 216.548,355.205 216.679,355.205 217.000 M264.542 239.282 C 264.702 239.323,264.965 239.323,265.125 239.282 C 265.285 239.240,265.154 239.205,264.833 239.205 C 264.512 239.205,264.381 239.240,264.542 239.282 M328.216 239.291 C 328.931 239.322,330.056 239.322,330.716 239.290 C 331.376 239.259,330.792 239.233,329.417 239.233 C 328.042 239.234,327.501 239.259,328.216 239.291 " stroke="none" fill="#5cbcc0" fill-rule="evenodd"></path></g></svg>